<svg xmlns="http://www.w3.org/2000/svg" width="787.617" height="649.368" viewBox="0 0 787.617 649.368"><path d="M321.941,637.237s293.037-244.565,461.809,0" transform="translate(-173.44 -134.388)" fill="#f2f2f2"/><ellipse cx="135.722" cy="21.152" rx="135.722" ry="21.152" transform="translate(493.639 607.065)" fill="#f2f2f2"/><ellipse cx="135.722" cy="21.152" rx="135.722" ry="21.152" transform="translate(515.672 599.133)" fill="none" stroke="#3f3d56" stroke-miterlimit="10" stroke-width="1"/><path d="M956.833,533.25A13.686,13.686,0,1,0,958.656,507l.343,7.044-3.333-6.037a13.634,13.634,0,0,0-7.025,7.708,13.419,13.419,0,0,0-.787,3.7,13.683,13.683,0,0,0,8.98,13.83Z" transform="translate(-247.723 -131.796)" fill="#57b894"/><path d="M976.411,613.365c-1.176-5.991,3.921-11.3,8.957-14.754s10.919-6.844,12.637-12.7c2.469-8.42-4.886-16.13-10.61-22.78a82.387,82.387,0,0,1-10.865-16.148,22.227,22.227,0,0,1-2.6-7.343c-.452-3.732.748-7.446,1.955-11.006q6.036-17.788,12.907-35.279" transform="translate(-250.81 -130.212)" fill="none" stroke="#3f3d56" stroke-miterlimit="10" stroke-width="1"/><path d="M957.472,531.192a13.686,13.686,0,1,0,1.823-26.247l.343,7.044-3.333-6.037a13.634,13.634,0,0,0-7.025,7.708,13.417,13.417,0,0,0-.787,3.7A13.683,13.683,0,0,0,957.472,531.192Z" transform="translate(-247.798 -131.551)" fill="none" stroke="#3f3d56" stroke-miterlimit="10" stroke-width="1"/><path d="M974.749,489.38a13.669,13.669,0,0,1,9.85-8.678l1.127,6.7,2.089-7.033a13.684,13.684,0,1,1-13.066,9.015Z" transform="translate(-250.821 -128.67)" fill="#57b894"/><path d="M975.6,486.636a13.67,13.67,0,0,1,9.85-8.678l1.127,6.7,2.089-7.033a13.684,13.684,0,1,1-13.066,9.015Z" transform="translate(-250.923 -128.344)" fill="none" stroke="#3f3d56" stroke-miterlimit="10" stroke-width="1"/><path d="M985.28,569.1a13.684,13.684,0,0,0,12.112-24.345l-1.606,5.4-1.138-6.776a.25.25,0,0,0-.035-.013,13.685,13.685,0,0,0-9.333,25.729Z" transform="translate(-251.098 -136.051)" fill="#57b894"/><path d="M986.018,566.325A13.684,13.684,0,0,0,998.13,541.98l-1.605,5.4-1.138-6.776a.235.235,0,0,0-.035-.013,13.685,13.685,0,1,0-9.333,25.729Z" transform="translate(-251.185 -135.721)" fill="none" stroke="#3f3d56" stroke-miterlimit="10" stroke-width="1"/><path d="M970.3,596.307a13.678,13.678,0,1,0,2.637-10.717l6.1,9.177L970.7,589.9a13.558,13.558,0,0,0-.4,6.41Z" transform="translate(-250.366 -140.526)" fill="#57b894"/><path d="M970.94,594.249a13.678,13.678,0,1,0,2.637-10.717l6.1,9.177-8.331-4.871a13.555,13.555,0,0,0-.4,6.41Z" transform="translate(-250.442 -140.282)" fill="none" stroke="#3f3d56" stroke-miterlimit="10" stroke-width="1"/><path d="M955.2,637.268s12.077-4.733,15.716-7.324,18.577-5.686,19.48-1.53,18.149,20.673,4.515,20.783-31.681,2.237-35.313.024S955.2,637.268,955.2,637.268Z" transform="translate(-248.598 -146)" fill="#656380"/><path d="M995.15,649.213c-13.634.11-31.68,2.237-35.313.024-2.766-1.685-3.869-7.732-4.238-10.521l-.4.016s.765,9.74,4.4,11.953,21.679.086,35.313-.024c3.936-.032,5.3-1.432,5.221-3.506C999.583,648.407,998.084,649.19,995.15,649.213Z" transform="translate(-248.598 -147.464)" opacity="0.2"/><rect width="52.879" height="139.248" rx="11.851" transform="translate(140.129 364.042)" fill="#6c63ff"/><rect width="52.879" height="222.973" rx="11.851" transform="translate(240.599 280.317)" fill="#6c63ff"/><rect width="52.879" height="281.139" rx="11.851" transform="translate(341.069 222.151)" fill="#6c63ff"/><rect width="52.879" height="336.662" rx="11.851" transform="translate(441.539 166.628)" fill="#6c63ff"/><rect width="52.879" height="433.607" rx="11.851" transform="translate(542.008 69.683)" fill="#6c63ff"/><rect width="52.879" height="139.248" rx="11.851" transform="translate(147.18 356.992)" fill="none" stroke="#3f3d56" stroke-miterlimit="10" stroke-width="1"/><rect width="52.879" height="222.973" rx="11.851" transform="translate(247.649 273.267)" fill="none" stroke="#3f3d56" stroke-miterlimit="10" stroke-width="1"/><rect width="52.879" height="281.139" rx="11.851" transform="translate(348.119 215.1)" fill="none" stroke="#3f3d56" stroke-miterlimit="10" stroke-width="1"/><rect width="52.879" height="336.662" rx="11.851" transform="translate(448.589 159.577)" fill="none" stroke="#3f3d56" stroke-miterlimit="10" stroke-width="1"/><rect width="52.879" height="433.607" rx="11.851" transform="translate(549.059 62.633)" fill="none" stroke="#3f3d56" stroke-miterlimit="10" stroke-width="1"/><line x1="758.812" transform="translate(0 503.731)" fill="none" stroke="#3f3d56" stroke-miterlimit="10" stroke-width="1"/><path d="M958.812,556.951s8.294,29.858-2.212,34.282-7.188-33.176-7.188-33.176Z" transform="translate(-247.853 -137.76)" fill="#a0616a"/><path d="M871.488,773.995s-7.741-.553-10.506,1.106a6.672,6.672,0,0,1-5.529.553s-12.164-1.106-7.741,4.976,8.846,8.294,8.846,11.058,18.247,2.765,18.8,0,1.106-17.141,0-17.694S871.488,773.995,871.488,773.995Z" transform="translate(-235.726 -163.49)" fill="#575a89"/><path d="M897.426,773.995s7.741-.553,10.506,1.106a6.672,6.672,0,0,0,5.529.553s12.164-1.106,7.741,4.976-8.847,8.294-8.847,11.059-18.247,2.765-18.8,0-1.106-17.141,0-17.694S897.426,773.995,897.426,773.995Z" transform="translate(-241.206 -163.49)" fill="#575a89"/><path d="M848.782,549.19s-3.87,87.363-1.659,91.786,9.953,79.069,8.847,83.492-6.635,22.67,0,25.435,21.011,0,21.011,0,3.87-22.117,2.212-33.729-2.212-60.269-2.212-60.269l11.059-50.869,3.87,48.1s1.106,65.8-6.635,79.069,2.765,18.8,2.765,18.8,21.011,2.765,23.223,2.212-1.659-22.117,0-31.517,5.529-61.928,8.847-74.645,22.117-83.492,8.294-97.868S848.782,549.19,848.782,549.19Z" transform="translate(-235.69 -136.08)" fill="#3f3d56"/><circle cx="19.353" cy="19.353" r="19.353" transform="translate(634.102 198.02)" fill="#a0616a"/><path d="M878.584,337.769s3.318,26.541,1.659,27.093,29.305,0,29.305,0-6.082-16.035,0-28.752Z" transform="translate(-239.505 -111.549)" fill="#a0616a"/><path d="M878.584,361.666s13.476-13.27,29.408,0l1.031,3.956-8.323-.085H878.584Z" transform="translate(-239.505 -113.882)" fill="#f2f2f2"/><path d="M938.946,531.951c-1.277.254-4.407.774-8.487,1.393-13.585,2.051-37.66,5.159-38.511,3.03-1.106-2.765-4.976-12.717-7.741-8.294s-1.106,8.294-12.717,8.847c-7.9.376-19.386-.785-25.744-2.61-2.986-.857-4.844-1.858-4.667-2.919.553-3.318,6.635-66.351,6.635-72.434s2.212-35.387,2.212-35.387l-15.891-31.268-1.25-2.461s1.659-6.082,6.635-7.188,28.752-14.929,28.752-14.929,4.976-7.741,14.376-7.188,11.611-3.318,24.329,7.188c0,0,15.482,6.635,21.011,9.953S939.5,381,940.052,386.531c.111,1.111-.492,3.251-1.526,5.955-3.787,9.909-13.359,27.442-14.857,30.173-.133.238-.2.365-.2.365s-.287,9.942.017,21.581v.028c.3,11.164,1.139,23.887,3.3,30.92C931.206,489.928,944.476,530.845,938.946,531.951Z" transform="translate(-234.07 -114.418)" fill="#575a89"/><path d="M916.568,315.6a13.183,13.183,0,0,0-2.187-4.887,26.405,26.405,0,0,0-3.942-11.373,11.932,11.932,0,0,0-3.532-4.076,10.426,10.426,0,0,0-5.557-1.385c-.353-.006-.987.1-1.558.127-.365-.113-.734-.214-1.1-.309-.216-.48-.644-1.88-.763-1.785l-1.612,1.281c-.682-.118-1.367-.211-2.055-.284l-.751-2.143a14.681,14.681,0,0,0-1.065,2q-1.027-.05-2.055-.035l-1.37-1.316a1.933,1.933,0,0,1-1.512,1.481c-.631.065-1.259.149-1.885.25h-.153c-3.375-.084-7.006-.236-9.829,1.617a9.686,9.686,0,0,0-3.129,3.551c-.345.235-.692.468-1.028.717a11.233,11.233,0,0,0-2.895,2.87A12.169,12.169,0,0,0,867.3,305a29.755,29.755,0,0,0-1.474,10.165,15.086,15.086,0,0,0,3.709,9.414c1.447,1.555,3.287,2.7,4.737,4.257,2.984,3.2,3.544,7.659,6.1,11.043,2.7,3.579,7.628,5.935,11.955,6.61a19.97,19.97,0,0,0,14.877-3.71,9.2,9.2,0,0,0,2.533-2.656c1.5-2.6.865-5.864,1.423-8.812C912.206,325.784,917.481,321.146,916.568,315.6Z" transform="translate(-237.99 -106.167)" fill="#3f3d56"/><path d="M838.353,558.833s8.294,29.858-2.212,34.281-7.188-33.176-7.188-33.176Z" transform="translate(-233.556 -137.983)" fill="#a0616a"/><path d="M848.982,471.494s-3.627,53.833-3.069,66.8c-2.986-.857-4.844-1.858-4.667-2.919.553-3.318,6.635-66.351,6.635-72.434s2.212-35.387,2.212-35.387L834.2,396.29c.254-1.548.409-2.461.409-2.461l8.017,16.864,11.335,3.041Z" transform="translate(-234.238 -118.399)" opacity="0.1"/><path d="M835.28,390.065l-3.87,3.318s-4.976,29.305-4.423,36.493-11.612,116.115-2.212,116.115,19.905-1.659,18.247-5.529,2.761-69.414,2.761-69.414l4.98-57.759Z" transform="translate(-232.694 -117.953)" fill="#575a89"/><path d="M950.765,395.8c-3.787,9.909-13.359,27.442-14.857,30.173.044-7.072.072-12.076.072-12.076l11.612-23.776,2.488-1.935S950.346,391.108,950.765,395.8Z" transform="translate(-246.309 -117.729)" opacity="0.1"/><path d="M951.1,543.31c-1.277.254-4.407.774-8.488,1.393-2.118-15.659-7.78-60.689-7.42-64.93.177-2.09.326-12.419.442-23.781.3,11.164,1.139,23.886,3.3,30.92C943.358,501.287,956.628,542.2,951.1,543.31Z" transform="translate(-246.222 -125.777)" opacity="0.1"/><path d="M943.9,385.673l8.294,2.212s5.529,61.375,6.082,71.881,7.188,75.2,6.082,77.963-18.247,6.635-18.8,3.871-8.591-65.148-8.166-70.173-2.34-57-2.34-57Z" transform="translate(-246.207 -117.431)" fill="#575a89"/><path d="M196.5,304.978l100.47-83.725,101.351-57.285,100.47-55.523L599.261,11.5" transform="translate(-23.322 -1.306)" fill="none" stroke="#3f3d56" stroke-miterlimit="10" stroke-width="1"/><circle cx="9.694" cy="9.694" r="9.694" transform="translate(160.84 298.384)" fill="#f2f2f2"/><circle cx="9.694" cy="9.694" r="9.694" transform="translate(261.31 214.659)" fill="#f2f2f2"/><circle cx="9.694" cy="9.694" r="9.694" transform="translate(362.661 157.374)" fill="#f2f2f2"/><circle cx="9.694" cy="9.694" r="9.694" transform="translate(463.131 101.851)" fill="#f2f2f2"/><circle cx="9.694" cy="9.694" r="9.694" transform="translate(563.601 4.907)" fill="#f2f2f2"/><circle cx="9.694" cy="9.694" r="9.694" transform="translate(163.484 293.978)" fill="none" stroke="#3f3d56" stroke-miterlimit="10" stroke-width="1"/><circle cx="9.694" cy="9.694" r="9.694" transform="translate(263.954 210.253)" fill="none" stroke="#3f3d56" stroke-miterlimit="10" stroke-width="1"/><circle cx="9.694" cy="9.694" r="9.694" transform="translate(365.305 152.967)" fill="none" stroke="#3f3d56" stroke-miterlimit="10" stroke-width="1"/><circle cx="9.694" cy="9.694" r="9.694" transform="translate(465.775 97.445)" fill="none" stroke="#3f3d56" stroke-miterlimit="10" stroke-width="1"/><circle cx="9.694" cy="9.694" r="9.694" transform="translate(566.245 0.5)" fill="none" stroke="#3f3d56" stroke-miterlimit="10" stroke-width="1"/></svg>