<svg version="1.1" id="Layer_1" xmlns="http://www.w3.org/2000/svg" xmlns:xlink="http://www.w3.org/1999/xlink" x="0px" y="0px"
	 width="100%" viewBox="0 0 1358 383" enable-background="new 0 0 1358 383" xml:space="preserve">
<path fill="#FFFFFF" opacity="1.000000" stroke="none" 
	d="
M893.000000,384.000000 
	C595.333374,384.000000 298.166687,384.000000 1.000040,384.000000 
	C1.000027,256.333344 1.000027,128.666718 1.000013,1.000057 
	C453.666626,1.000038 906.333252,1.000038 1359.000000,1.000019 
	C1359.000000,128.666611 1359.000000,256.333221 1359.000000,383.999908 
	C1203.833374,384.000000 1048.666626,384.000000 893.000000,384.000000 
M860.500000,55.000000 
	C851.383667,55.000000 842.267395,55.000000 833.360596,55.000000 
	C822.076294,119.265121 810.896667,182.934036 799.679138,246.819000 
	C818.641846,246.819000 836.593628,246.819000 854.636963,246.819000 
	C857.433899,231.651321 860.694946,216.707352 862.701294,201.596786 
	C863.401672,196.321609 865.274048,195.999466 869.455872,195.921127 
	C888.420166,195.565933 907.445496,197.365280 926.287720,193.117355 
	C954.679138,186.716614 976.260437,172.053085 987.221313,144.254135 
	C991.670898,132.969070 993.999756,121.192703 992.110718,108.911705 
	C991.972229,108.011345 992.434082,106.621552 993.113525,106.052071 
	C1003.282532,97.529663 1013.554260,89.129990 1023.754578,80.644638 
	C1026.302368,78.525162 1028.683716,76.205276 1031.141479,73.977478 
	C1030.894287,73.729759 1030.646973,73.482033 1030.399780,73.234314 
	C974.172302,103.904221 917.944885,134.574127 860.877014,165.702454 
	C856.027161,143.270752 851.319946,121.499023 846.612793,99.727295 
	C850.408752,102.282806 853.022156,105.204155 855.629211,108.131256 
	C860.996704,114.157501 866.468750,120.095413 871.679077,126.254745 
	C874.166199,129.194870 876.640808,130.773819 880.459229,128.877136 
	C882.635376,127.796173 884.898621,126.859467 887.189026,126.044388 
	C914.504395,116.324097 941.843323,106.669830 969.148560,96.921158 
	C975.415466,94.683693 981.577759,92.153084 987.830933,89.740906 
	C981.664185,75.670708 971.766357,66.243462 958.143250,60.575474 
	C948.147949,56.416851 937.532776,55.352036 926.975586,55.135090 
	C905.158630,54.686760 883.326111,55.000000 860.500000,55.000000 
M1255.973999,306.526886 
	C1262.646118,302.189423 1270.008911,298.617737 1275.845703,293.354004 
	C1287.733765,282.632965 1293.800049,268.374176 1296.963745,252.902725 
	C1299.470581,240.643707 1301.731812,228.331650 1303.915649,216.010086 
	C1306.387451,202.063370 1308.582886,188.067795 1311.026001,174.115799 
	C1313.157715,161.941895 1315.515381,149.807693 1317.680298,137.639420 
	C1319.175781,129.233231 1320.513062,120.798897 1321.984131,112.000053 
	C1306.038208,112.000053 1290.561768,112.109940 1275.088989,111.919540 
	C1271.412964,111.874298 1270.166992,113.216461 1269.926025,116.671371 
	C1269.723999,119.567513 1268.849365,122.412247 1268.346436,125.292656 
	C1265.883179,139.399902 1263.580200,153.536804 1260.951538,167.612976 
	C1259.050659,177.791916 1257.838013,188.175995 1252.286133,197.362656 
	C1248.773315,203.175720 1238.857910,208.893784 1232.969727,207.944641 
	C1221.640625,206.118469 1216.459961,200.566544 1217.172852,188.911819 
	C1217.757690,179.348969 1219.695435,169.850067 1221.333740,160.374695 
	C1224.098511,144.382767 1227.100952,128.431885 1230.087769,112.000000 
	C1221.436890,112.000000 1213.131836,112.000000 1204.826782,112.000000 
	C1196.356812,112.000000 1187.886719,112.000000 1179.340210,112.000000 
	C1178.182495,118.082100 1177.031128,123.800713 1176.013428,129.543015 
	C1173.798218,142.041611 1171.896362,154.601166 1169.414307,167.045609 
	C1166.341064,182.452713 1164.362915,197.891632 1167.067627,213.512878 
	C1168.662354,222.723007 1172.473877,231.420441 1179.895386,237.102585 
	C1194.396240,248.204742 1211.174438,249.600571 1228.642212,246.100952 
	C1237.407715,244.344788 1244.597046,239.889328 1250.779297,233.299683 
	C1250.442017,238.229950 1249.916626,242.883591 1248.938721,247.440063 
	C1247.194092,255.568253 1245.108276,263.611176 1237.701172,268.784424 
	C1229.725586,274.354584 1221.188232,273.978729 1212.482422,270.977448 
	C1206.003662,268.743958 1204.613403,263.407410 1204.885254,257.000000 
	C1192.380371,257.000000 1180.248657,257.000000 1168.116943,257.000000 
	C1155.999878,257.000000 1155.893433,257.001160 1156.023560,268.977417 
	C1156.254028,290.207275 1166.802490,303.017242 1186.060425,310.072540 
	C1198.268433,314.545044 1210.939697,314.053894 1223.603149,314.021332 
	C1234.715942,313.992737 1245.200439,311.320282 1255.973999,306.526886 
M119.502106,124.997971 
	C94.155006,165.691025 68.807907,206.384079 42.887630,247.997345 
	C60.517658,247.997345 76.498985,248.097809 92.474602,247.842056 
	C94.073784,247.816467 96.126221,245.946289 97.139717,244.391937 
	C103.649963,234.407211 110.063477,224.352371 116.190285,214.129669 
	C117.737663,211.547867 119.428810,210.934540 122.140907,210.955063 
	C135.299515,211.054672 148.459290,211.000015 161.618652,211.000000 
	C175.257553,211.000000 188.896439,211.000000 202.636688,211.000000 
	C205.969681,223.502991 209.222336,235.704666 212.445374,247.795197 
	C228.110138,247.795197 243.396362,247.795197 259.149109,247.795197 
	C252.722839,224.265793 246.364944,201.049042 240.043167,177.822464 
	C233.672363,154.415771 227.337387,130.999329 220.986755,107.587173 
	C216.511093,91.087318 212.029633,74.589043 207.565872,58.085979 
	C206.874817,55.531082 205.981964,53.838654 202.623260,53.905411 
	C190.468155,54.147018 178.304459,53.935368 166.146698,54.097000 
	C164.866364,54.114021 163.097382,55.148716 162.407669,56.246780 
	C148.170639,78.913017 134.057358,101.656975 119.502106,124.997971 
M1149.001099,172.542358 
	C1152.559204,152.448364 1156.117310,132.354370 1159.721436,112.000420 
	C1144.242798,112.000420 1129.250977,111.920517 1114.263062,112.130470 
	C1112.845947,112.150330 1110.869385,113.690605 1110.173828,115.048256 
	C1108.775391,117.776993 1108.082031,120.867027 1107.281494,123.259117 
	C1103.331421,120.002754 1099.967285,116.572533 1096.008789,114.089668 
	C1084.321899,106.759285 1070.902832,107.746689 1058.456543,109.379044 
	C1031.669800,112.892189 1012.696472,128.682770 1000.021729,152.137161 
	C991.465881,167.969528 989.587158,185.280304 991.193298,202.789642 
	C992.356567,215.470688 996.983276,227.204666 1006.716919,236.195328 
	C1015.016052,243.861099 1024.890259,247.580795 1036.096924,249.177475 
	C1049.383789,251.070526 1061.812988,249.047714 1073.755249,243.552963 
	C1079.024902,241.128296 1083.858643,237.756531 1089.250732,234.604050 
	C1089.250732,238.814926 1089.250732,242.755814 1089.250732,246.835968 
	C1104.861938,246.835968 1120.146606,246.835968 1136.021118,246.835968 
	C1138.107544,234.689026 1140.147095,222.536118 1142.292725,210.401993 
	C1144.473755,198.066925 1146.759399,185.750381 1149.001099,172.542358 
M463.077850,105.066734 
	C455.618286,104.708763 448.161926,104.159622 440.698425,104.033859 
	C426.533539,103.795189 413.573090,108.345421 401.526062,115.275612 
	C389.182983,122.376076 379.187195,132.273834 372.210175,144.684952 
	C365.992889,155.744583 363.033081,167.809235 361.687347,180.612091 
	C360.553986,191.394440 361.282654,201.880295 364.578339,211.672485 
	C373.626648,238.557114 394.919067,249.330811 420.153320,250.970001 
	C433.510681,251.837677 446.113068,248.605347 458.323792,242.957596 
	C458.323792,244.726288 458.323792,246.243530 458.323792,247.998703 
	C471.445679,247.998703 484.263123,247.960754 497.079987,248.029465 
	C499.768372,248.043900 500.773468,247.107574 501.091034,244.304779 
	C501.826385,237.815430 502.947235,231.362854 504.099274,224.928955 
	C507.348846,206.780441 510.704681,188.650986 513.995850,170.509903 
	C516.325989,157.665970 518.675598,144.825119 520.908569,131.964142 
	C522.379211,123.494110 523.657898,114.990768 525.066711,106.227646 
	C510.475555,106.227646 496.377411,106.227646 482.505463,106.227646 
	C481.805054,108.630577 481.183105,110.764389 480.657288,112.568352 
	C474.879608,110.097099 469.369354,107.740250 463.077850,105.066734 
M678.479614,111.896935 
	C672.280701,116.120850 665.994385,120.222984 659.903259,124.597015 
	C650.589172,131.285461 644.524170,140.588882 640.008972,150.880280 
	C633.013794,166.824371 630.573181,183.412292 632.891907,200.825928 
	C634.600952,213.661011 639.577820,224.923660 648.589417,233.824814 
	C660.242310,245.334885 675.144409,250.122360 691.309387,250.972733 
	C704.323730,251.657333 716.652161,248.749252 728.653748,242.818176 
	C728.901672,244.747757 729.097473,246.271393 729.319397,247.998413 
	C742.496887,247.998413 755.308594,248.097198 768.113525,247.848190 
	C769.417542,247.822830 771.593201,245.868759 771.828186,244.538361 
	C776.371948,218.814987 780.590576,193.034378 785.078857,167.300919 
	C788.608276,147.064850 792.412231,126.876678 796.160034,106.306229 
	C781.716309,106.306229 767.639771,106.306229 753.386597,106.306229 
	C752.724487,108.484673 752.045349,110.718987 751.313110,113.128197 
	C750.430603,112.660248 749.843689,112.394402 749.302551,112.055473 
	C734.593262,102.842209 718.566772,101.779915 702.100037,105.021667 
	C694.311829,106.554916 686.752930,109.252853 678.479614,111.896935 
M264.546753,139.948273 
	C264.102356,142.160141 263.657990,144.372009 263.123108,147.034393 
	C271.093872,147.034393 278.871948,147.034393 287.054138,147.034393 
	C285.873596,154.235718 284.880798,160.975739 283.648529,167.671677 
	C280.708252,183.648773 276.873169,199.512161 277.997650,215.963654 
	C278.616150,225.013016 282.137909,232.909485 288.674683,239.007584 
	C298.111816,247.811417 310.310944,249.924530 322.463226,249.746384 
	C333.190613,249.589111 343.732147,246.794998 353.666321,242.193207 
	C356.388306,240.932327 357.467377,239.416763 356.993378,236.629944 
	C354.924164,224.464218 352.839478,212.301117 350.773773,200.215439 
	C344.314636,202.703064 338.369385,205.386642 332.182465,207.280991 
	C323.435211,209.959320 320.439545,207.122650 322.065552,198.236572 
	C325.171814,181.261032 328.344666,164.297638 331.550415,147.002563 
	C343.536499,147.002563 355.480560,147.002563 367.715912,147.002563 
	C370.089966,133.282410 372.414673,119.847427 374.818909,105.952858 
	C362.874756,105.952858 351.103821,105.952858 338.811829,105.952858 
	C340.915161,93.794212 342.930359,82.144951 344.972290,70.341118 
	C344.032471,70.200699 343.380585,69.977493 342.750488,70.027733 
	C330.123260,71.034569 317.488434,71.968636 304.881714,73.191528 
	C302.313049,73.440697 299.603668,74.270416 299.055054,77.798859 
	C297.826202,85.702301 295.982025,93.530495 295.167664,101.469269 
	C294.765869,105.386581 293.334595,106.146240 289.923981,106.052612 
	C283.340698,105.871910 276.748962,105.999893 270.349426,105.999893 
	C268.458038,117.543449 266.687439,128.349884 264.546753,139.948273 
M566.015747,220.672989 
	C568.344360,207.658020 570.989014,194.689651 572.916748,181.615540 
	C575.035095,167.248062 579.873474,154.824936 594.577393,149.280655 
	C603.563965,145.892166 612.776672,144.444855 620.790222,152.205444 
	C622.232910,153.602585 624.109680,154.551361 626.029724,155.875153 
	C631.474670,141.165878 640.998413,129.939117 652.956665,120.753960 
	C640.210693,103.255249 611.112122,97.985085 585.321777,109.510590 
	C585.051025,108.342323 584.786255,107.200134 584.568481,106.260437 
	C570.185364,106.260437 556.235107,106.260437 542.130554,106.260437 
	C533.921204,153.499512 525.751404,200.511490 517.566833,247.608063 
	C533.074097,247.608063 547.454468,247.608063 561.596008,247.608063 
	C563.111877,238.646317 564.556946,230.103134 566.015747,220.672989 
M70.465652,283.000000 
	C66.700172,283.000000 62.934692,283.000000 59.512066,283.000000 
	C57.196938,298.605286 54.981392,313.539307 52.687714,329.000000 
	C59.847675,329.000000 66.300247,328.909332 72.749153,329.024384 
	C79.818619,329.150482 85.262146,326.598175 88.017960,319.827789 
	C90.434143,313.891815 89.347931,308.614075 84.042564,304.558533 
	C84.659966,303.910156 85.116592,303.429016 85.574936,302.949463 
	C93.057457,295.121429 90.696373,286.390228 80.222023,283.761993 
	C77.407402,283.055725 74.371849,283.229950 70.465652,283.000000 
M1021.600586,328.997833 
	C1024.006348,328.997833 1026.412109,328.997833 1029.501709,328.997833 
	C1024.980347,321.499298 1032.296753,312.410278 1024.120728,306.561615 
	C1030.490601,302.282104 1032.993896,295.966858 1030.907227,289.832794 
	C1029.697021,286.275085 1023.372864,283.023712 1017.583923,283.002747 
	C1013.584778,282.988281 1009.564575,283.254730 1005.592041,282.929474 
	C1001.496338,282.594086 1000.291382,284.211060 999.882446,288.169189 
	C999.045715,296.266998 997.510315,304.291321 996.319824,312.354401 
	C995.521240,317.763062 994.820679,323.186218 994.060303,328.718689 
	C997.243774,328.718689 999.991516,328.718689 1002.661072,328.718689 
	C1003.630859,322.346313 1004.557251,316.259064 1005.509644,310.000580 
	C1007.498596,310.000580 1009.322266,309.929871 1011.138855,310.013062 
	C1018.189148,310.335785 1019.737366,312.569092 1019.155823,319.588745 
	C1018.901672,322.657166 1020.127197,325.848175 1021.600586,328.997833 
M310.179291,284.336731 
	C300.894653,290.734344 301.014984,300.727203 308.689178,306.068848 
	C310.633575,307.422272 313.083191,308.033752 315.255981,309.078979 
	C318.161133,310.476440 321.206055,311.692841 323.856598,313.482208 
	C327.166901,315.717010 326.627106,318.338959 323.741119,320.765808 
	C318.169952,325.450653 309.926056,322.504669 308.292847,315.000031 
	C307.029053,315.000031 305.712219,314.968262 304.397644,315.008636 
	C302.967957,315.052490 301.540314,315.163330 300.157532,315.242340 
	C299.849365,323.004486 301.405243,325.687073 307.744232,328.245911 
	C313.889221,330.726440 320.048584,330.543121 326.283752,328.294250 
	C332.049316,326.214630 334.058929,321.930511 334.317169,316.227570 
	C334.535187,311.412323 332.899261,307.849854 328.381500,305.766296 
	C323.718109,303.615601 319.096100,301.374786 314.463959,299.156677 
	C310.543762,297.279388 311.047913,294.223236 313.606415,292.166473 
	C315.565491,290.591583 319.007172,289.347076 321.211365,289.977295 
	C323.917023,290.750885 326.020935,293.628937 328.385010,295.597198 
	C328.093689,295.970947 327.802368,296.344696 327.511047,296.718445 
	C330.268799,296.718445 333.026581,296.718445 335.758209,296.718445 
	C336.280701,288.759644 333.239594,285.036957 326.172852,282.883972 
	C320.745880,281.230560 315.934265,282.788361 310.179291,284.336731 
M543.493958,322.006226 
	C545.340698,318.086609 547.187378,314.166992 549.034058,310.247375 
	C549.373901,310.266571 549.713684,310.285767 550.053467,310.304993 
	C551.193176,316.526215 552.332947,322.747437 553.445374,328.819916 
	C556.125549,328.819916 558.429688,328.819916 560.809326,328.819916 
	C565.515991,317.589081 570.169312,306.485535 574.720215,295.626373 
	C568.169861,293.278259 565.097168,295.728210 563.620605,301.661957 
	C562.429565,306.448608 560.399536,311.026489 558.485779,316.418091 
	C557.182190,308.662384 556.034668,301.835022 554.913147,295.162292 
	C552.244812,295.162292 550.268311,295.162292 548.296692,295.162292 
	C545.587585,301.180786 542.939636,307.063385 540.099060,313.373962 
	C536.463440,310.075623 538.202515,306.061676 538.085083,302.598938 
	C537.813538,294.592072 536.879578,293.724701 528.786011,295.842987 
	C530.232239,306.875854 531.683533,317.947296 533.054382,328.405121 
	C539.615967,330.690277 541.592834,327.038605 543.493958,322.006226 
M716.604248,297.098602 
	C717.825439,307.630310 719.046692,318.162018 720.261230,328.636414 
	C727.238831,329.332581 727.254028,329.340057 730.056458,323.662933 
	C732.437744,318.839050 734.778625,313.995178 737.487122,308.443176 
	C738.444458,314.383545 739.052856,319.246155 740.087891,324.016205 
	C740.471863,325.785858 741.531738,328.349518 742.853821,328.773926 
	C745.397888,329.590576 748.283142,329.532837 749.654175,325.886078 
	C752.046509,319.522980 754.843689,313.312042 757.474792,307.038879 
	C759.078247,303.215942 760.688416,299.395813 762.460999,295.180969 
	C758.915039,295.180969 756.129150,295.180969 753.554016,295.180969 
	C751.166992,301.842682 748.861267,308.277588 746.555603,314.712494 
	C746.239807,314.713409 745.924011,314.714355 745.608215,314.715271 
	C744.596680,308.211090 743.585205,301.706909 742.602051,295.384949 
	C737.032532,293.513123 734.728943,296.546265 732.996948,300.988068 
	C731.085876,305.889282 728.817078,310.651001 726.368591,316.239105 
	C725.773682,308.672455 725.252380,302.040863 724.655762,294.451996 
	C721.627747,295.126434 718.868713,295.740936 716.604248,297.098602 
M274.126465,280.703430 
	C273.477875,286.027985 272.829315,291.352509 272.111420,297.246185 
	C267.017670,292.629730 261.652191,292.954926 257.027679,295.760712 
	C251.284897,299.244934 248.437744,305.247498 248.131378,311.888702 
	C247.931793,316.214783 247.791779,321.265839 249.760574,324.803741 
	C252.863876,330.380280 258.705109,332.983429 266.896515,327.570465 
	C270.617523,328.355164 273.004181,328.858459 275.804840,329.449066 
	C278.341827,312.553894 280.762177,296.435577 283.214783,280.102509 
	C279.789551,280.102509 277.305298,280.102509 274.126465,280.703430 
M436.623596,319.000000 
	C439.708374,319.000000 442.793182,319.000000 445.520813,319.000000 
	C446.185516,322.760406 446.718140,325.773438 447.235596,328.700623 
	C450.357941,328.700623 453.108307,328.700623 456.278625,328.700623 
	C453.482422,314.813599 450.824036,301.279358 447.957458,287.789337 
	C447.593597,286.076843 446.348450,283.455658 445.149445,283.236481 
	C442.336975,282.722382 439.206573,282.047882 437.287109,286.108276 
	C431.090546,299.216400 424.433380,312.106537 417.997467,325.102356 
	C417.470886,326.165649 417.275330,327.392883 416.846619,328.805328 
	C420.178101,328.805328 422.956726,328.805328 425.575928,328.805328 
	C427.298767,325.409760 428.909790,322.234619 430.550964,319.000000 
	C432.373749,319.000000 434.033356,319.000000 436.623596,319.000000 
M577.526123,304.976532 
	C576.320679,312.813293 575.115173,320.650055 573.865845,328.772217 
	C577.083984,328.772217 579.832642,328.772217 582.549072,328.772217 
	C583.719971,321.343567 584.861633,314.127350 585.993408,306.909576 
	C586.518311,303.562073 590.980774,300.135712 594.041016,301.111176 
	C597.861755,302.329010 598.352112,305.155945 597.638123,308.902740 
	C596.400696,315.396057 595.690063,321.989807 594.757507,328.548584 
	C602.852112,329.431366 602.881653,329.436127 604.019775,322.368408 
	C604.822815,317.382355 605.271729,312.324615 606.341675,307.399414 
	C608.147461,299.086334 604.190491,293.764221 595.796448,294.070007 
	C593.298645,294.161011 590.831299,295.089020 587.669556,295.782837 
	C588.395752,290.540588 589.098938,285.464264 589.822510,280.241211 
	C586.848389,280.241211 584.091003,280.241211 581.035583,280.241211 
	C579.983948,288.350739 578.958008,296.262299 577.526123,304.976532 
M805.066345,289.828766 
	C803.333923,302.714966 801.601562,315.601166 799.869690,328.483215 
	C807.901489,329.534943 807.868652,329.529541 809.032104,322.476105 
	C809.983154,316.709961 810.447327,310.759857 812.325989,305.304108 
	C813.024597,303.275482 817.032654,301.742371 819.727600,301.358185 
	C820.825195,301.201721 823.753479,304.819702 823.599060,306.515533 
	C822.925903,313.908752 821.425598,321.226624 820.190430,328.787292 
	C823.012756,328.787292 825.783325,328.787292 829.251160,328.787292 
	C830.173706,320.460175 831.403198,312.237091 831.905029,303.969849 
	C832.346924,296.690979 829.186157,293.779449 821.787903,294.082428 
	C818.999207,294.196686 816.248718,295.244995 813.353699,295.896057 
	C813.992859,290.573700 814.600098,285.516602 815.238953,280.196381 
	C812.247253,280.196381 809.967163,280.196381 807.231689,280.196381 
	C806.653870,283.091858 806.061279,286.061218 805.066345,289.828766 
M1084.999023,317.402924 
	C1084.410767,321.165253 1083.822632,324.927582 1083.234009,328.693054 
	C1086.333008,328.693054 1089.087891,328.693054 1091.538086,328.693054 
	C1092.515259,323.863586 1093.420166,319.391846 1094.324951,314.920105 
	C1096.384766,316.184784 1097.204712,317.528229 1097.980591,318.896667 
	C1101.374756,324.883636 1103.743652,332.434265 1113.531250,328.400238 
	C1110.426880,322.665863 1107.154419,316.621002 1103.931396,310.667328 
	C1108.519653,305.510040 1112.829468,300.665771 1117.388428,295.541412 
	C1110.080933,293.871185 1104.929321,295.324707 1101.477783,301.797791 
	C1100.310059,303.987640 1097.742798,305.431305 1094.941895,308.024414 
	C1096.454102,297.832214 1097.749756,289.098938 1099.051514,280.325409 
	C1095.664673,280.325409 1092.923584,280.325409 1090.447998,280.325409 
	C1088.596313,292.622009 1086.798096,304.563690 1084.999023,317.402924 
M864.380249,319.081848 
	C870.898621,309.573181 877.489929,300.113007 883.875427,290.515930 
	C885.187744,288.543610 885.731079,286.059570 886.952881,283.000000 
	C877.735229,283.000000 869.781616,282.992859 861.828003,283.002411 
	C856.127869,283.009216 855.604370,283.684052 856.601501,289.962891 
	C862.152771,289.962891 867.754333,289.962891 873.917847,289.962891 
	C873.057800,291.491669 872.531311,292.637390 871.821899,293.655670 
	C865.599060,302.587006 859.222534,311.414825 853.184570,320.468719 
	C851.697937,322.697876 851.282959,325.641754 850.117554,329.000000 
	C860.019653,329.000000 868.640930,329.008087 877.262207,328.997131 
	C882.816833,328.990082 883.479431,328.102356 882.314575,321.998138 
	C876.727356,321.998138 871.087769,322.011078 865.448425,321.989746 
	C863.880371,321.983826 861.958862,322.118164 864.380249,319.081848 
M191.480942,301.920807 
	C197.557007,299.914001 199.359665,301.388275 198.506531,307.664917 
	C194.609589,308.112122 190.685287,308.395569 186.821518,309.041290 
	C179.289413,310.300140 175.708099,316.070038 176.108231,322.536957 
	C176.411194,327.433258 182.291580,330.990234 188.165619,329.890930 
	C190.796600,329.398499 193.221741,327.806152 195.740280,326.712982 
	C195.607834,327.077362 195.475372,327.441772 195.342911,327.806152 
	C198.357376,328.331512 201.371841,328.856873 204.140884,329.339478 
	C205.508804,320.829590 206.829666,313.127747 207.919098,305.393280 
	C208.132797,303.876099 207.716537,302.127350 207.134995,300.666931 
	C205.102859,295.563660 200.606461,293.458313 193.427307,294.002502 
	C186.079361,294.559479 182.048462,297.795166 180.141418,305.067963 
	C183.930023,304.532288 188.094009,306.626801 191.480942,301.920807 
M140.493927,337.024750 
	C145.015869,328.564789 149.578979,320.126526 154.044678,311.636993 
	C156.826920,306.347839 159.461884,300.981201 162.384125,295.212708 
	C158.604538,295.212708 155.505844,295.212708 152.661011,295.212708 
	C149.570282,301.820007 146.561493,308.252167 143.552704,314.684296 
	C141.696854,309.255920 140.616745,304.028656 140.093842,298.746246 
	C139.819641,295.976379 138.920303,294.818726 136.164871,294.977844 
	C134.135742,295.095062 132.094391,295.000824 129.838120,295.000824 
	C132.020111,305.079803 134.220001,314.231934 135.935837,323.473938 
	C137.413467,331.432953 135.256973,334.109100 126.514984,335.654358 
	C126.659149,337.854706 126.149292,341.704681 127.092850,342.101868 
	C129.188797,342.984161 132.193878,342.650085 134.487000,341.842560 
	C136.578934,341.105835 138.220963,339.091583 140.493927,337.024750 
M502.948669,328.114899 
	C501.283783,330.993164 500.285309,334.872101 496.171265,334.900177 
	C491.734924,334.930481 492.044586,338.279816 492.324799,340.572601 
	C492.447327,341.575043 496.246429,343.296448 497.582458,342.750305 
	C500.822571,341.425720 504.664612,339.614990 506.362152,336.837677 
	C511.769928,327.989899 516.341187,318.628204 521.172791,309.432068 
	C523.568787,304.871704 525.827454,300.239166 528.363831,295.212189 
	C524.611023,295.212189 521.517029,295.212189 518.784973,295.212189 
	C515.604858,301.728638 512.535767,308.017456 509.466705,314.306274 
	C507.738312,309.664368 507.192108,305.622955 506.269897,301.669220 
	C504.492737,294.050262 504.404572,294.070831 495.882446,295.589752 
	C498.249207,306.166260 500.613800,316.732971 502.948669,328.114899 
M961.338196,329.016510 
	C963.228882,328.180115 965.404297,327.695862 966.956421,326.440796 
	C971.469604,322.791321 973.449463,317.749207 974.548096,312.101990 
	C975.668030,306.344727 974.505554,301.272766 970.566528,297.238159 
	C966.643066,293.219543 961.251099,293.161224 956.215637,294.411560 
	C947.336670,296.616241 939.876160,309.070892 942.125183,318.024048 
	C944.446228,327.263733 949.238525,331.909271 961.338196,329.016510 
M888.005920,309.769012 
	C887.070923,314.413452 886.267822,319.028564 888.959534,323.442200 
	C893.939331,331.607330 906.907043,332.482269 915.022400,325.053070 
	C914.280945,323.358154 913.528503,321.638245 912.779602,319.926483 
	C900.365662,325.060974 895.410767,323.280121 896.457642,313.967285 
	C903.177917,313.967285 909.949829,313.967285 916.576111,313.967285 
	C919.024170,307.063324 919.008484,300.541687 913.297058,296.119598 
	C908.446899,292.364441 902.422791,293.199951 897.098999,296.026489 
	C891.997314,298.735077 889.778870,303.722748 888.005920,309.769012 
M364.330994,295.878845 
	C356.130951,291.689362 347.272125,294.175781 342.989746,300.785980 
	C340.701080,304.318695 339.692993,308.783752 338.584473,312.954956 
	C336.769775,319.783264 340.174438,328.743347 349.441071,329.889954 
	C355.383362,330.625183 361.156311,329.552246 366.150269,325.337433 
	C365.282135,323.436951 364.457947,321.632690 363.619995,319.798279 
	C358.606293,321.935608 354.019806,325.098907 349.375702,321.480072 
	C347.672638,320.152954 347.425781,316.957123 346.250916,313.935455 
	C354.310944,313.935455 360.936707,313.935455 367.547028,313.935455 
	C369.998627,307.398743 369.647491,301.568329 364.330994,295.878845 
M675.378174,319.862305 
	C674.897583,318.049835 674.416992,316.237396 673.793091,313.884552 
	C681.470520,313.884552 688.565247,313.884552 695.999939,313.884552 
	C695.999939,310.497345 696.038269,307.531830 695.991821,304.567627 
	C695.898132,298.586304 691.361938,294.171204 685.351746,293.986328 
	C673.143860,293.610901 667.925598,300.746185 666.245117,310.395111 
	C663.872620,324.017487 669.830811,330.949280 682.798584,329.967468 
	C691.572876,329.303192 693.798889,326.589142 691.316650,320.120697 
	C686.222351,321.545898 681.181396,325.645050 675.378174,319.862305 
M641.000000,304.846130 
	C640.623291,298.292175 636.404907,294.148834 630.142883,293.985291 
	C617.952209,293.666962 612.786804,301.105713 611.221008,310.579010 
	C608.882751,324.725586 615.515259,330.990356 627.964233,329.956848 
	C636.756470,329.226898 638.933044,326.426544 636.162354,320.115906 
	C624.846680,325.171234 620.367676,323.655457 619.180481,313.816071 
	C626.458984,313.816071 633.676147,313.816071 641.000000,313.816071 
	C641.000000,310.745697 641.000000,308.251373 641.000000,304.846130 
M232.002151,326.449158 
	C232.115631,331.067963 235.664856,328.707367 237.551239,328.787964 
	C238.643250,328.834625 240.602295,326.937988 240.835907,325.669952 
	C242.104294,318.784973 243.147293,311.843903 243.896576,304.882141 
	C244.593964,298.402649 239.963882,293.087921 233.605423,294.237823 
	C227.779938,295.291321 222.009872,294.764832 215.957642,295.075989 
	C214.218231,306.459900 212.532593,317.491943 210.815933,328.726990 
	C214.210770,328.726990 216.953262,328.726990 219.492035,328.726990 
	C220.692230,321.194672 221.849533,313.960297 222.995789,306.724182 
	C223.481415,303.658478 227.696793,300.558289 230.760880,301.032501 
	C234.075928,301.545593 235.519012,304.617554 234.751312,308.657043 
	C233.687363,314.255493 232.903931,319.907257 232.002151,326.449158 
M468.998840,316.385681 
	C469.332642,313.629181 469.766663,310.880249 469.976318,308.114349 
	C470.280060,304.107483 473.582733,300.899963 477.837860,301.050049 
	C482.551697,301.216339 482.067963,304.832855 481.969299,307.980804 
	C481.923737,309.434509 481.535706,310.876038 481.325928,312.326385 
	C480.542816,317.739990 479.769257,323.154968 478.968842,328.731476 
	C482.209778,328.731476 484.957001,328.731476 487.449493,328.731476 
	C488.634766,322.024384 490.057098,315.653656 490.800751,309.204651 
	C491.337616,304.548981 492.188782,299.456543 487.461182,296.002045 
	C483.047607,292.776978 478.607544,293.401184 474.132050,295.947357 
	C473.324707,296.406708 472.233185,296.899048 471.419708,296.717651 
	C468.725952,296.116943 466.099365,295.215149 463.466919,294.434814 
	C461.614594,306.673340 459.957458,317.622192 458.268951,328.778442 
	C460.977905,328.778442 463.750031,328.778442 466.654663,328.778442 
	C467.447906,324.874451 468.219360,321.077637 468.998840,316.385681 
M116.999962,301.535339 
	C116.310608,306.705505 115.883728,311.928955 114.848969,317.029053 
	C114.018166,321.123901 110.398842,322.835999 106.772568,322.836578 
	C102.566566,322.837280 102.723793,319.115570 103.047966,316.152100 
	C103.804756,309.233795 104.814011,302.343109 105.750008,295.220642 
	C102.964104,295.220642 100.206474,295.220642 97.217468,295.220642 
	C96.798622,298.406403 96.485954,301.466431 95.973862,304.492737 
	C95.432953,307.689270 94.679718,310.849335 94.058144,314.032898 
	C92.091164,324.107452 96.924553,330.903931 105.660126,329.883759 
	C108.430534,329.560242 111.044243,327.894775 113.696129,326.856537 
	C115.207237,331.260986 118.855499,328.137085 121.599342,328.992279 
	C123.296463,317.447083 124.930618,306.330200 126.561394,295.236328 
	C123.500420,295.236328 120.885818,295.236328 118.242165,295.236328 
	C117.795395,297.182922 117.398201,298.913483 116.999962,301.535339 
M1068.485962,329.111053 
	C1074.361450,328.369476 1078.707520,324.326721 1078.999390,319.331635 
	C1079.342285,313.463928 1076.784790,310.607117 1069.734009,308.996063 
	C1068.156616,308.635681 1066.417603,308.594025 1065.039795,307.864288 
	C1063.822754,307.219727 1062.009888,305.526337 1062.219849,304.816345 
	C1062.647949,303.368256 1064.517334,301.070251 1065.339233,301.245911 
	C1068.175659,301.852173 1070.816895,303.371582 1073.532471,304.543213 
	C1073.364990,305.028809 1073.197510,305.514374 1073.030029,305.999939 
	C1074.026978,305.999939 1075.024048,306.009186 1076.020874,305.998413 
	C1081.170410,305.942780 1082.120850,304.398315 1079.887207,299.724213 
	C1077.179688,294.058533 1066.246704,291.956848 1059.739380,295.782013 
	C1055.670898,298.173492 1052.643799,301.492493 1053.138306,306.321320 
	C1053.628174,311.106445 1057.438354,313.267303 1061.831787,314.416199 
	C1063.853516,314.944855 1065.875854,315.568024 1067.786133,316.403961 
	C1071.065918,317.839294 1071.048950,320.593445 1068.327515,321.805695 
	C1066.086670,322.803802 1061.137817,322.729187 1060.539795,321.542328 
	C1057.931274,316.365784 1053.957886,318.273926 1050.184692,318.203247 
	C1051.484497,327.252625 1053.507568,328.331390 1061.410034,329.919037 
	C1063.448853,330.328674 1065.681763,329.773193 1068.485962,329.111053 
M797.303101,300.988464 
	C798.290527,299.215271 799.278015,297.442108 800.489685,295.266296 
	C797.979980,295.082550 796.203247,294.952454 793.936401,294.786469 
	C794.284119,291.798706 794.604797,289.043610 794.919556,286.339355 
	C791.609314,286.339355 788.868591,286.339355 786.055725,286.339355 
	C785.868530,290.766113 787.332947,296.013184 780.264709,295.198578 
	C779.770508,297.180542 779.356873,298.839172 778.864258,300.814880 
	C780.775024,300.948608 782.208130,301.048889 784.379578,301.200836 
	C783.242798,307.589172 781.697510,313.590881 781.301208,319.667542 
	C781.112000,322.569092 782.272034,326.700775 784.343323,328.286041 
	C786.409485,329.867279 790.551636,329.603180 793.429871,328.830414 
	C794.585388,328.520142 794.797546,324.696411 795.439087,322.471863 
	C794.732422,322.691010 794.025696,322.910126 793.319031,323.129272 
	C792.213684,321.888550 790.069214,320.545227 790.179871,319.424561 
	C790.705322,314.103027 791.673584,308.801483 792.906982,303.592896 
	C793.163391,302.510284 795.213257,301.852356 797.303101,300.988464 
M381.989899,316.335968 
	C383.684448,304.334747 385.378998,292.333527 387.070618,280.353210 
	C383.592010,280.353210 380.856018,280.353210 378.467407,280.353210 
	C376.030151,296.689056 373.651611,312.631470 371.241486,328.785522 
	C374.021545,328.785522 376.790436,328.785522 379.674988,328.785522 
	C380.444458,324.834991 381.185303,321.031433 381.989899,316.335968 
M403.005188,282.876373 
	C403.156860,282.006378 403.308533,281.136353 403.476349,280.173645 
	C400.707306,280.173645 398.086365,280.173645 394.981934,280.173645 
	C392.587341,296.399414 390.207916,312.522247 387.820068,328.702362 
	C395.890991,329.273621 395.886078,329.272797 397.043671,322.343475 
	C397.123047,321.868500 397.436737,321.431183 397.507233,320.956390 
	C399.349182,308.554840 401.173370,296.150635 403.005188,282.876373 
M931.000549,310.726471 
	C931.583252,307.191589 931.754211,303.253632 936.582825,302.860596 
	C942.000916,302.419556 943.296753,298.834839 943.688904,294.152924 
	C938.510498,294.440613 933.470337,294.975708 928.437988,294.910767 
	C925.070984,294.867371 924.321716,296.524780 923.966797,299.287537 
	C923.471558,303.142639 922.611694,306.950531 922.101501,310.804260 
	C921.319031,316.714783 920.701477,322.647125 919.964539,328.994843 
	C922.243164,328.994843 924.107422,329.288788 925.811584,328.893097 
	C926.979004,328.622009 928.659363,327.531525 928.843994,326.565338 
	C929.788879,321.620667 930.322571,316.597351 931.000549,310.726471 
M654.774414,295.023254 
	C652.655273,295.023254 650.536133,295.023254 648.306946,295.023254 
	C646.587708,306.440063 644.924072,317.487671 643.226318,328.762146 
	C645.946228,328.762146 648.705505,328.762146 651.913269,328.762146 
	C652.611206,323.631012 653.222778,318.502716 654.028015,313.404999 
	C654.729431,308.964661 654.797241,303.068176 660.305725,302.574921 
	C666.318359,302.036560 666.187744,298.416870 667.238159,293.410583 
	C664.011353,294.247772 661.476440,295.023376 658.887939,295.519409 
	C657.841858,295.719818 656.678650,295.309418 654.774414,295.023254 
M775.040283,297.010712 
	C774.862244,296.351501 774.715088,295.130707 774.501343,295.118927 
	C772.055054,294.983948 769.598572,295.033051 767.011536,295.033051 
	C765.280945,306.543030 763.623169,317.568573 761.948792,328.704712 
	C765.281677,328.704712 768.024536,328.704712 770.762817,328.704712 
	C772.203552,318.236420 773.604431,308.057953 775.040283,297.010712 
M1046.065552,304.835968 
	C1046.740112,301.722595 1047.414673,298.609222 1048.150513,295.212585 
	C1044.940430,295.212585 1042.188477,295.212585 1039.247681,295.212585 
	C1037.521240,306.401611 1035.819580,317.429199 1034.079590,328.705627 
	C1037.040771,328.705627 1039.922729,328.705627 1042.930420,328.705627 
	C1043.980957,320.864227 1044.994995,313.295441 1046.065552,304.835968 
M771.656921,286.999969 
	C773.287842,286.999969 774.918762,286.999969 776.582397,286.999969 
	C777.115906,284.648590 777.572510,282.636047 778.104431,280.291443 
	C774.974426,280.291443 772.102234,280.291443 769.289795,280.291443 
	C768.941833,282.571014 768.631836,284.601288 768.295044,286.807587 
	C769.151306,286.873810 769.961243,286.936462 771.656921,286.999969 
M1042.860596,286.999359 
	C1044.806519,286.999359 1046.752563,286.999359 1048.847168,286.999359 
	C1049.285889,284.525513 1049.655396,282.441589 1050.036743,280.291199 
	C1046.639038,280.291199 1043.908813,280.291199 1040.473389,280.291199 
	C1041.041748,282.796326 1041.517822,284.895142 1042.860596,286.999359 
z"/>
<path fill="#575757" opacity="1.000000" stroke="none" 
	d="
M861.000000,55.000000 
	C883.326111,55.000000 905.158630,54.686760 926.975586,55.135090 
	C937.532776,55.352036 948.147949,56.416851 958.143250,60.575474 
	C971.766357,66.243462 981.664185,75.670708 987.830933,89.740906 
	C981.577759,92.153084 975.415466,94.683693 969.148560,96.921158 
	C941.843323,106.669830 914.504395,116.324097 887.189026,126.044388 
	C884.898621,126.859467 882.635376,127.796173 880.459229,128.877136 
	C876.640808,130.773819 874.166199,129.194870 871.679077,126.254745 
	C866.468750,120.095413 860.996704,114.157501 855.629211,108.131256 
	C853.022156,105.204155 850.408752,102.282806 846.612793,99.727295 
	C851.319946,121.499023 856.027161,143.270752 860.877014,165.702454 
	C917.944885,134.574127 974.172302,103.904221 1030.399780,73.234314 
	C1030.646973,73.482033 1030.894287,73.729759 1031.141479,73.977478 
	C1028.683716,76.205276 1026.302368,78.525162 1023.754578,80.644638 
	C1013.554260,89.129990 1003.282532,97.529663 993.113525,106.052071 
	C992.434082,106.621552 991.972229,108.011345 992.110718,108.911705 
	C993.999756,121.192703 991.670898,132.969070 987.221313,144.254135 
	C976.260437,172.053085 954.679138,186.716614 926.287720,193.117355 
	C907.445496,197.365280 888.420166,195.565933 869.455872,195.921127 
	C865.274048,195.999466 863.401672,196.321609 862.701294,201.596786 
	C860.694946,216.707352 857.433899,231.651321 854.636963,246.819000 
	C836.593628,246.819000 818.641846,246.819000 799.679138,246.819000 
	C810.896667,182.934036 822.076294,119.265121 833.360596,55.000000 
	C842.267395,55.000000 851.383667,55.000000 861.000000,55.000000 
z"/>
<path fill="#575757" opacity="1.000000" stroke="none" 
	d="
M1255.648926,306.735870 
	C1245.200439,311.320282 1234.715942,313.992737 1223.603149,314.021332 
	C1210.939697,314.053894 1198.268433,314.545044 1186.060425,310.072540 
	C1166.802490,303.017242 1156.254028,290.207275 1156.023560,268.977417 
	C1155.893433,257.001160 1155.999878,257.000000 1168.116943,257.000000 
	C1180.248657,257.000000 1192.380371,257.000000 1204.885254,257.000000 
	C1204.613403,263.407410 1206.003662,268.743958 1212.482422,270.977448 
	C1221.188232,273.978729 1229.725586,274.354584 1237.701172,268.784424 
	C1245.108276,263.611176 1247.194092,255.568253 1248.938721,247.440063 
	C1249.916626,242.883591 1250.442017,238.229950 1250.779297,233.299683 
	C1244.597046,239.889328 1237.407715,244.344788 1228.642212,246.100952 
	C1211.174438,249.600571 1194.396240,248.204742 1179.895386,237.102585 
	C1172.473877,231.420441 1168.662354,222.723007 1167.067627,213.512878 
	C1164.362915,197.891632 1166.341064,182.452713 1169.414307,167.045609 
	C1171.896362,154.601166 1173.798218,142.041611 1176.013428,129.543015 
	C1177.031128,123.800713 1178.182495,118.082100 1179.340210,112.000000 
	C1187.886719,112.000000 1196.356812,112.000000 1204.826782,112.000000 
	C1213.131836,112.000000 1221.436890,112.000000 1230.087769,112.000000 
	C1227.100952,128.431885 1224.098511,144.382767 1221.333740,160.374695 
	C1219.695435,169.850067 1217.757690,179.348969 1217.172852,188.911819 
	C1216.459961,200.566544 1221.640625,206.118469 1232.969727,207.944641 
	C1238.857910,208.893784 1248.773315,203.175720 1252.286133,197.362656 
	C1257.838013,188.175995 1259.050659,177.791916 1260.951538,167.612976 
	C1263.580200,153.536804 1265.883179,139.399902 1268.346436,125.292656 
	C1268.849365,122.412247 1269.723999,119.567513 1269.926025,116.671371 
	C1270.166992,113.216461 1271.412964,111.874298 1275.088989,111.919540 
	C1290.561768,112.109940 1306.038208,112.000053 1321.984131,112.000053 
	C1320.513062,120.798897 1319.175781,129.233231 1317.680298,137.639420 
	C1315.515381,149.807693 1313.157715,161.941895 1311.026001,174.115799 
	C1308.582886,188.067795 1306.387451,202.063370 1303.915649,216.010086 
	C1301.731812,228.331650 1299.470581,240.643707 1296.963745,252.902725 
	C1293.800049,268.374176 1287.733765,282.632965 1275.845703,293.354004 
	C1270.008911,298.617737 1262.646118,302.189423 1255.648926,306.735870 
z"/>
<path fill="#4B72B8" opacity="1.000000" stroke="none" 
	d="
M119.710815,124.691742 
	C134.057358,101.656975 148.170639,78.913017 162.407669,56.246780 
	C163.097382,55.148716 164.866364,54.114021 166.146698,54.097000 
	C178.304459,53.935368 190.468155,54.147018 202.623260,53.905411 
	C205.981964,53.838654 206.874817,55.531082 207.565872,58.085979 
	C212.029633,74.589043 216.511093,91.087318 220.986755,107.587173 
	C227.337387,130.999329 233.672363,154.415771 240.043167,177.822464 
	C246.364944,201.049042 252.722839,224.265793 259.149109,247.795197 
	C243.396362,247.795197 228.110138,247.795197 212.445374,247.795197 
	C209.222336,235.704666 205.969681,223.502991 202.636688,211.000000 
	C188.896439,211.000000 175.257553,211.000000 161.618652,211.000000 
	C148.459290,211.000015 135.299515,211.054672 122.140907,210.955063 
	C119.428810,210.934540 117.737663,211.547867 116.190285,214.129669 
	C110.063477,224.352371 103.649963,234.407211 97.139717,244.391937 
	C96.126221,245.946289 94.073784,247.816467 92.474602,247.842056 
	C76.498985,248.097809 60.517658,247.997345 42.887630,247.997345 
	C68.807907,206.384079 94.155006,165.691025 119.710815,124.691742 
M190.113312,163.390182 
	C185.976730,147.464523 181.840149,131.538864 177.613571,115.266693 
	C171.947205,124.312065 166.473648,132.977112 161.074875,141.688477 
	C155.761963,150.261292 150.524841,158.881104 145.088562,167.750977 
	C160.910065,167.750977 175.838837,167.750977 191.051453,167.750977 
	C190.872681,166.347961 190.729706,165.225876 190.113312,163.390182 
z"/>
<path fill="#575757" opacity="1.000000" stroke="none" 
	d="
M1149.000122,172.984039 
	C1146.759399,185.750381 1144.473755,198.066925 1142.292725,210.401993 
	C1140.147095,222.536118 1138.107544,234.689026 1136.021118,246.835968 
	C1120.146606,246.835968 1104.861938,246.835968 1089.250732,246.835968 
	C1089.250732,242.755814 1089.250732,238.814926 1089.250732,234.604050 
	C1083.858643,237.756531 1079.024902,241.128296 1073.755249,243.552963 
	C1061.812988,249.047714 1049.383789,251.070526 1036.096924,249.177475 
	C1024.890259,247.580795 1015.016052,243.861099 1006.716919,236.195328 
	C996.983276,227.204666 992.356567,215.470688 991.193298,202.789642 
	C989.587158,185.280304 991.465881,167.969528 1000.021729,152.137161 
	C1012.696472,128.682770 1031.669800,112.892189 1058.456543,109.379044 
	C1070.902832,107.746689 1084.321899,106.759285 1096.008789,114.089668 
	C1099.967285,116.572533 1103.331421,120.002754 1107.281494,123.259117 
	C1108.082031,120.867027 1108.775391,117.776993 1110.173828,115.048256 
	C1110.869385,113.690605 1112.845947,112.150330 1114.263062,112.130470 
	C1129.250977,111.920517 1144.242798,112.000420 1159.721436,112.000420 
	C1156.117310,132.354370 1152.559204,152.448364 1149.000122,172.984039 
M1071.092041,150.409729 
	C1067.125732,151.726471 1062.647095,152.270325 1059.284912,154.498566 
	C1047.089355,162.580795 1041.118408,173.849503 1042.914307,188.905838 
	C1043.990112,197.925903 1048.147095,204.418808 1056.867432,206.919037 
	C1067.234375,209.891388 1076.893311,208.041229 1085.047241,200.463013 
	C1095.221069,191.007675 1099.815063,179.691940 1096.343506,165.837708 
	C1093.808228,155.720245 1085.299194,149.417252 1071.092041,150.409729 
z"/>
<path fill="#4B72B8" opacity="1.000000" stroke="none" 
	d="
M463.468506,105.225067 
	C469.369354,107.740250 474.879608,110.097099 480.657288,112.568352 
	C481.183105,110.764389 481.805054,108.630577 482.505463,106.227646 
	C496.377411,106.227646 510.475555,106.227646 525.066711,106.227646 
	C523.657898,114.990768 522.379211,123.494110 520.908569,131.964142 
	C518.675598,144.825119 516.325989,157.665970 513.995850,170.509903 
	C510.704681,188.650986 507.348846,206.780441 504.099274,224.928955 
	C502.947235,231.362854 501.826385,237.815430 501.091034,244.304779 
	C500.773468,247.107574 499.768372,248.043900 497.079987,248.029465 
	C484.263123,247.960754 471.445679,247.998703 458.323792,247.998703 
	C458.323792,246.243530 458.323792,244.726288 458.323792,242.957596 
	C446.113068,248.605347 433.510681,251.837677 420.153320,250.970001 
	C394.919067,249.330811 373.626648,238.557114 364.578339,211.672485 
	C361.282654,201.880295 360.553986,191.394440 361.687347,180.612091 
	C363.033081,167.809235 365.992889,155.744583 372.210175,144.684952 
	C379.187195,132.273834 389.182983,122.376076 401.526062,115.275612 
	C413.573090,108.345421 426.533539,103.795189 440.698425,104.033859 
	C448.161926,104.159622 455.618286,104.708763 463.468506,105.225067 
M405.000031,182.653839 
	C406.073578,187.680710 406.051422,193.315460 408.436584,197.614700 
	C414.379639,208.327118 426.700348,211.748230 440.321014,207.214417 
	C456.637543,201.783234 466.212311,189.798721 468.712799,173.365311 
	C471.134308,157.451309 465.106110,147.316467 450.490845,145.282928 
	C427.595276,142.097290 407.422729,157.638260 405.000031,182.653839 
z"/>
<path fill="#4B72B8" opacity="1.000000" stroke="none" 
	d="
M678.784912,111.660019 
	C686.752930,109.252853 694.311829,106.554916 702.100037,105.021667 
	C718.566772,101.779915 734.593262,102.842209 749.302551,112.055473 
	C749.843689,112.394402 750.430603,112.660248 751.313110,113.128197 
	C752.045349,110.718987 752.724487,108.484673 753.386597,106.306229 
	C767.639771,106.306229 781.716309,106.306229 796.160034,106.306229 
	C792.412231,126.876678 788.608276,147.064850 785.078857,167.300919 
	C780.590576,193.034378 776.371948,218.814987 771.828186,244.538361 
	C771.593201,245.868759 769.417542,247.822830 768.113525,247.848190 
	C755.308594,248.097198 742.496887,247.998413 729.319397,247.998413 
	C729.097473,246.271393 728.901672,244.747757 728.653748,242.818176 
	C716.652161,248.749252 704.323730,251.657333 691.309387,250.972733 
	C675.144409,250.122360 660.242310,245.334885 648.589417,233.824814 
	C639.577820,224.923660 634.600952,213.661011 632.891907,200.825928 
	C630.573181,183.412292 633.013794,166.824371 640.008972,150.880280 
	C644.524170,140.588882 650.589172,131.285461 659.903259,124.597015 
	C665.994385,120.222984 672.280701,116.120850 678.784912,111.660019 
M712.688232,144.999985 
	C711.856018,145.002228 710.998169,144.871353 710.195435,145.026245 
	C691.505920,148.632767 679.233276,160.322815 676.211792,178.823135 
	C674.984619,186.337128 675.115479,194.272247 681.128540,200.706711 
	C689.790466,209.975769 700.156067,210.558533 711.365967,207.202377 
	C726.872437,202.559875 738.096436,187.757736 739.866516,171.672104 
	C740.923828,162.064117 738.675232,152.818756 729.231812,148.111099 
	C724.650024,145.827042 718.862915,145.960831 712.688232,144.999985 
z"/>
<path fill="#4B72B8" opacity="1.000000" stroke="none" 
	d="
M264.731812,139.552307 
	C266.687439,128.349884 268.458038,117.543449 270.349426,105.999893 
	C276.748962,105.999893 283.340698,105.871910 289.923981,106.052612 
	C293.334595,106.146240 294.765869,105.386581 295.167664,101.469269 
	C295.982025,93.530495 297.826202,85.702301 299.055054,77.798859 
	C299.603668,74.270416 302.313049,73.440697 304.881714,73.191528 
	C317.488434,71.968636 330.123260,71.034569 342.750488,70.027733 
	C343.380585,69.977493 344.032471,70.200699 344.972290,70.341118 
	C342.930359,82.144951 340.915161,93.794212 338.811829,105.952858 
	C351.103821,105.952858 362.874756,105.952858 374.818909,105.952858 
	C372.414673,119.847427 370.089966,133.282410 367.715912,147.002563 
	C355.480560,147.002563 343.536499,147.002563 331.550415,147.002563 
	C328.344666,164.297638 325.171814,181.261032 322.065552,198.236572 
	C320.439545,207.122650 323.435211,209.959320 332.182465,207.280991 
	C338.369385,205.386642 344.314636,202.703064 350.773773,200.215439 
	C352.839478,212.301117 354.924164,224.464218 356.993378,236.629944 
	C357.467377,239.416763 356.388306,240.932327 353.666321,242.193207 
	C343.732147,246.794998 333.190613,249.589111 322.463226,249.746384 
	C310.310944,249.924530 298.111816,247.811417 288.674683,239.007584 
	C282.137909,232.909485 278.616150,225.013016 277.997650,215.963654 
	C276.873169,199.512161 280.708252,183.648773 283.648529,167.671677 
	C284.880798,160.975739 285.873596,154.235718 287.054138,147.034393 
	C278.871948,147.034393 271.093872,147.034393 263.123108,147.034393 
	C263.657990,144.372009 264.102356,142.160141 264.731812,139.552307 
z"/>
<path fill="#4B72B8" opacity="1.000000" stroke="none" 
	d="
M566.008911,221.116455 
	C564.556946,230.103134 563.111877,238.646317 561.596008,247.608063 
	C547.454468,247.608063 533.074097,247.608063 517.566833,247.608063 
	C525.751404,200.511490 533.921204,153.499512 542.130554,106.260437 
	C556.235107,106.260437 570.185364,106.260437 584.568481,106.260437 
	C584.786255,107.200134 585.051025,108.342323 585.321777,109.510590 
	C611.112122,97.985085 640.210693,103.255249 652.956665,120.753960 
	C640.998413,129.939117 631.474670,141.165878 626.029724,155.875153 
	C624.109680,154.551361 622.232910,153.602585 620.790222,152.205444 
	C612.776672,144.444855 603.563965,145.892166 594.577393,149.280655 
	C579.873474,154.824936 575.035095,167.248062 572.916748,181.615540 
	C570.989014,194.689651 568.344360,207.658020 566.008911,221.116455 
z"/>
<path fill="#575757" opacity="1.000000" stroke="none" 
	d="
M70.951683,283.000000 
	C74.371849,283.229950 77.407402,283.055725 80.222023,283.761993 
	C90.696373,286.390228 93.057457,295.121429 85.574936,302.949463 
	C85.116592,303.429016 84.659966,303.910156 84.042564,304.558533 
	C89.347931,308.614075 90.434143,313.891815 88.017960,319.827789 
	C85.262146,326.598175 79.818619,329.150482 72.749153,329.024384 
	C66.300247,328.909332 59.847675,329.000000 52.687714,329.000000 
	C54.981392,313.539307 57.196938,298.605286 59.512066,283.000000 
	C62.934692,283.000000 66.700172,283.000000 70.951683,283.000000 
M73.050850,321.999634 
	C75.012520,321.066376 77.626617,320.611633 78.757874,319.069305 
	C79.960854,317.429199 80.331032,314.678802 80.035538,312.556519 
	C79.596489,309.403290 76.948479,308.805603 74.012718,308.960632 
	C70.754829,309.132660 67.480858,309.000000 64.230225,309.000000 
	C63.605396,313.613312 63.053291,317.689728 62.469509,322.000000 
	C65.886589,322.000000 69.023880,322.000000 73.050850,321.999634 
M70.581772,290.000122 
	C69.382805,290.820435 67.462349,291.416107 67.123459,292.504242 
	C66.198257,295.475189 65.940186,298.653900 65.377274,301.990875 
	C68.565605,301.990875 71.393066,302.172974 74.187325,301.946106 
	C77.919167,301.643036 81.444260,297.978607 80.928093,294.797882 
	C80.314072,291.014099 77.321121,290.102142 73.964279,290.003937 
	C73.134918,289.979645 72.304245,290.000092 70.581772,290.000122 
z"/>
<path fill="#575757" opacity="1.000000" stroke="none" 
	d="
M1021.140686,328.990662 
	C1020.127197,325.848175 1018.901672,322.657166 1019.155823,319.588745 
	C1019.737366,312.569092 1018.189148,310.335785 1011.138855,310.013062 
	C1009.322266,309.929871 1007.498596,310.000580 1005.509644,310.000580 
	C1004.557251,316.259064 1003.630859,322.346313 1002.661072,328.718689 
	C999.991516,328.718689 997.243774,328.718689 994.060303,328.718689 
	C994.820679,323.186218 995.521240,317.763062 996.319824,312.354401 
	C997.510315,304.291321 999.045715,296.266998 999.882446,288.169189 
	C1000.291382,284.211060 1001.496338,282.594086 1005.592041,282.929474 
	C1009.564575,283.254730 1013.584778,282.988281 1017.583923,283.002747 
	C1023.372864,283.023712 1029.697021,286.275085 1030.907227,289.832794 
	C1032.993896,295.966858 1030.490601,302.282104 1024.120728,306.561615 
	C1032.296753,312.410278 1024.980347,321.499298 1029.501709,328.997833 
	C1026.412109,328.997833 1024.006348,328.997833 1021.140686,328.990662 
M1015.086548,302.999634 
	C1020.457581,302.112610 1023.556213,298.931213 1022.945984,294.930267 
	C1022.266968,290.478943 1017.055969,288.932068 1008.271729,290.585724 
	C1007.807922,294.553375 1007.344116,298.521057 1006.820557,303.000000 
	C1009.658630,303.000000 1011.929749,303.000000 1015.086548,302.999634 
z"/>
<path fill="#575757" opacity="1.000000" stroke="none" 
	d="
M310.552582,284.189301 
	C315.934265,282.788361 320.745880,281.230560 326.172852,282.883972 
	C333.239594,285.036957 336.280701,288.759644 335.758209,296.718445 
	C333.026581,296.718445 330.268799,296.718445 327.511047,296.718445 
	C327.802368,296.344696 328.093689,295.970947 328.385010,295.597198 
	C326.020935,293.628937 323.917023,290.750885 321.211365,289.977295 
	C319.007172,289.347076 315.565491,290.591583 313.606415,292.166473 
	C311.047913,294.223236 310.543762,297.279388 314.463959,299.156677 
	C319.096100,301.374786 323.718109,303.615601 328.381500,305.766296 
	C332.899261,307.849854 334.535187,311.412323 334.317169,316.227570 
	C334.058929,321.930511 332.049316,326.214630 326.283752,328.294250 
	C320.048584,330.543121 313.889221,330.726440 307.744232,328.245911 
	C301.405243,325.687073 299.849365,323.004486 300.157532,315.242340 
	C301.540314,315.163330 302.967957,315.052490 304.397644,315.008636 
	C305.712219,314.968262 307.029053,315.000031 308.292847,315.000031 
	C309.926056,322.504669 318.169952,325.450653 323.741119,320.765808 
	C326.627106,318.338959 327.166901,315.717010 323.856598,313.482208 
	C321.206055,311.692841 318.161133,310.476440 315.255981,309.078979 
	C313.083191,308.033752 310.633575,307.422272 308.689178,306.068848 
	C301.014984,300.727203 300.894653,290.734344 310.552582,284.189301 
z"/>
<path fill="#575757" opacity="1.000000" stroke="none" 
	d="
M543.277161,322.324890 
	C541.592834,327.038605 539.615967,330.690277 533.054382,328.405121 
	C531.683533,317.947296 530.232239,306.875854 528.786011,295.842987 
	C536.879578,293.724701 537.813538,294.592072 538.085083,302.598938 
	C538.202515,306.061676 536.463440,310.075623 540.099060,313.373962 
	C542.939636,307.063385 545.587585,301.180786 548.296692,295.162292 
	C550.268311,295.162292 552.244812,295.162292 554.913147,295.162292 
	C556.034668,301.835022 557.182190,308.662384 558.485779,316.418091 
	C560.399536,311.026489 562.429565,306.448608 563.620605,301.661957 
	C565.097168,295.728210 568.169861,293.278259 574.720215,295.626373 
	C570.169312,306.485535 565.515991,317.589081 560.809326,328.819916 
	C558.429688,328.819916 556.125549,328.819916 553.445374,328.819916 
	C552.332947,322.747437 551.193176,316.526215 550.053467,310.304993 
	C549.713684,310.285767 549.373901,310.266571 549.034058,310.247375 
	C547.187378,314.166992 545.340698,318.086609 543.277161,322.324890 
z"/>
<path fill="#575757" opacity="1.000000" stroke="none" 
	d="
M716.356934,296.727020 
	C718.868713,295.740936 721.627747,295.126434 724.655762,294.451996 
	C725.252380,302.040863 725.773682,308.672455 726.368591,316.239105 
	C728.817078,310.651001 731.085876,305.889282 732.996948,300.988068 
	C734.728943,296.546265 737.032532,293.513123 742.602051,295.384949 
	C743.585205,301.706909 744.596680,308.211090 745.608215,314.715271 
	C745.924011,314.714355 746.239807,314.713409 746.555603,314.712494 
	C748.861267,308.277588 751.166992,301.842682 753.554016,295.180969 
	C756.129150,295.180969 758.915039,295.180969 762.460999,295.180969 
	C760.688416,299.395813 759.078247,303.215942 757.474792,307.038879 
	C754.843689,313.312042 752.046509,319.522980 749.654175,325.886078 
	C748.283142,329.532837 745.397888,329.590576 742.853821,328.773926 
	C741.531738,328.349518 740.471863,325.785858 740.087891,324.016205 
	C739.052856,319.246155 738.444458,314.383545 737.487122,308.443176 
	C734.778625,313.995178 732.437744,318.839050 730.056458,323.662933 
	C727.254028,329.340057 727.238831,329.332581 720.261230,328.636414 
	C719.046692,318.162018 717.825439,307.630310 716.356934,296.727020 
z"/>
<path fill="#575757" opacity="1.000000" stroke="none" 
	d="
M274.473755,280.402954 
	C277.305298,280.102509 279.789551,280.102509 283.214783,280.102509 
	C280.762177,296.435577 278.341827,312.553894 275.804840,329.449066 
	C273.004181,328.858459 270.617523,328.355164 266.896515,327.570465 
	C258.705109,332.983429 252.863876,330.380280 249.760574,324.803741 
	C247.791779,321.265839 247.931793,316.214783 248.131378,311.888702 
	C248.437744,305.247498 251.284897,299.244934 257.027679,295.760712 
	C261.652191,292.954926 267.017670,292.629730 272.111420,297.246185 
	C272.829315,291.352509 273.477875,286.027985 274.473755,280.402954 
M259.381317,305.090332 
	C258.307251,307.929749 257.038086,310.713501 256.207642,313.622498 
	C255.129868,317.398041 257.537628,322.141479 260.600952,322.857422 
	C264.343842,323.732269 268.312988,320.491943 269.003082,315.977814 
	C269.446259,313.079193 270.171295,310.175873 270.169434,307.275024 
	C270.168304,305.544525 269.508423,303.156403 268.269379,302.210602 
	C264.827942,299.583679 262.274872,302.116730 259.381317,305.090332 
z"/>
<path fill="#575757" opacity="1.000000" stroke="none" 
	d="
M436.158264,319.000000 
	C434.033356,319.000000 432.373749,319.000000 430.550964,319.000000 
	C428.909790,322.234619 427.298767,325.409760 425.575928,328.805328 
	C422.956726,328.805328 420.178101,328.805328 416.846619,328.805328 
	C417.275330,327.392883 417.470886,326.165649 417.997467,325.102356 
	C424.433380,312.106537 431.090546,299.216400 437.287109,286.108276 
	C439.206573,282.047882 442.336975,282.722382 445.149445,283.236481 
	C446.348450,283.455658 447.593597,286.076843 447.957458,287.789337 
	C450.824036,301.279358 453.482422,314.813599 456.278625,328.700623 
	C453.108307,328.700623 450.357941,328.700623 447.235596,328.700623 
	C446.718140,325.773438 446.185516,322.760406 445.520813,319.000000 
	C442.793182,319.000000 439.708374,319.000000 436.158264,319.000000 
M443.844482,310.495544 
	C443.139984,306.155823 442.435516,301.816071 441.510284,296.116333 
	C438.710938,301.714081 436.475067,306.185181 434.104004,310.926514 
	C437.485870,310.926514 440.280731,310.926514 443.844482,310.495544 
z"/>
<path fill="#575757" opacity="1.000000" stroke="none" 
	d="
M577.729126,304.575195 
	C578.958008,296.262299 579.983948,288.350739 581.035583,280.241211 
	C584.091003,280.241211 586.848389,280.241211 589.822510,280.241211 
	C589.098938,285.464264 588.395752,290.540588 587.669556,295.782837 
	C590.831299,295.089020 593.298645,294.161011 595.796448,294.070007 
	C604.190491,293.764221 608.147461,299.086334 606.341675,307.399414 
	C605.271729,312.324615 604.822815,317.382355 604.019775,322.368408 
	C602.881653,329.436127 602.852112,329.431366 594.757507,328.548584 
	C595.690063,321.989807 596.400696,315.396057 597.638123,308.902740 
	C598.352112,305.155945 597.861755,302.329010 594.041016,301.111176 
	C590.980774,300.135712 586.518311,303.562073 585.993408,306.909576 
	C584.861633,314.127350 583.719971,321.343567 582.549072,328.772217 
	C579.832642,328.772217 577.083984,328.772217 573.865845,328.772217 
	C575.115173,320.650055 576.320679,312.813293 577.729126,304.575195 
z"/>
<path fill="#575757" opacity="1.000000" stroke="none" 
	d="
M805.267517,289.429688 
	C806.061279,286.061218 806.653870,283.091858 807.231689,280.196381 
	C809.967163,280.196381 812.247253,280.196381 815.238953,280.196381 
	C814.600098,285.516602 813.992859,290.573700 813.353699,295.896057 
	C816.248718,295.244995 818.999207,294.196686 821.787903,294.082428 
	C829.186157,293.779449 832.346924,296.690979 831.905029,303.969849 
	C831.403198,312.237091 830.173706,320.460175 829.251160,328.787292 
	C825.783325,328.787292 823.012756,328.787292 820.190430,328.787292 
	C821.425598,321.226624 822.925903,313.908752 823.599060,306.515533 
	C823.753479,304.819702 820.825195,301.201721 819.727600,301.358185 
	C817.032654,301.742371 813.024597,303.275482 812.325989,305.304108 
	C810.447327,310.759857 809.983154,316.709961 809.032104,322.476105 
	C807.868652,329.529541 807.901489,329.534943 799.869690,328.483215 
	C801.601562,315.601166 803.333923,302.714966 805.267517,289.429688 
z"/>
<path fill="#575757" opacity="1.000000" stroke="none" 
	d="
M1084.999512,316.954163 
	C1086.798096,304.563690 1088.596313,292.622009 1090.447998,280.325409 
	C1092.923584,280.325409 1095.664673,280.325409 1099.051514,280.325409 
	C1097.749756,289.098938 1096.454102,297.832214 1094.941895,308.024414 
	C1097.742798,305.431305 1100.310059,303.987640 1101.477783,301.797791 
	C1104.929321,295.324707 1110.080933,293.871185 1117.388428,295.541412 
	C1112.829468,300.665771 1108.519653,305.510040 1103.931396,310.667328 
	C1107.154419,316.621002 1110.426880,322.665863 1113.531250,328.400238 
	C1103.743652,332.434265 1101.374756,324.883636 1097.980591,318.896667 
	C1097.204712,317.528229 1096.384766,316.184784 1094.324951,314.920105 
	C1093.420166,319.391846 1092.515259,323.863586 1091.538086,328.693054 
	C1089.087891,328.693054 1086.333008,328.693054 1083.234009,328.693054 
	C1083.822632,324.927582 1084.410767,321.165253 1084.999512,316.954163 
z"/>
<path fill="#575757" opacity="1.000000" stroke="none" 
	d="
M864.123291,319.382263 
	C861.958862,322.118164 863.880371,321.983826 865.448425,321.989746 
	C871.087769,322.011078 876.727356,321.998138 882.314575,321.998138 
	C883.479431,328.102356 882.816833,328.990082 877.262207,328.997131 
	C868.640930,329.008087 860.019653,329.000000 850.117554,329.000000 
	C851.282959,325.641754 851.697937,322.697876 853.184570,320.468719 
	C859.222534,311.414825 865.599060,302.587006 871.821899,293.655670 
	C872.531311,292.637390 873.057800,291.491669 873.917847,289.962891 
	C867.754333,289.962891 862.152771,289.962891 856.601501,289.962891 
	C855.604370,283.684052 856.127869,283.009216 861.828003,283.002411 
	C869.781616,282.992859 877.735229,283.000000 886.952881,283.000000 
	C885.731079,286.059570 885.187744,288.543610 883.875427,290.515930 
	C877.489929,300.113007 870.898621,309.573181 864.123291,319.382263 
z"/>
<path fill="#575757" opacity="1.000000" stroke="none" 
	d="
M191.073059,301.996185 
	C188.094009,306.626801 183.930023,304.532288 180.141418,305.067963 
	C182.048462,297.795166 186.079361,294.559479 193.427307,294.002502 
	C200.606461,293.458313 205.102859,295.563660 207.134995,300.666931 
	C207.716537,302.127350 208.132797,303.876099 207.919098,305.393280 
	C206.829666,313.127747 205.508804,320.829590 204.140884,329.339478 
	C201.371841,328.856873 198.357376,328.331512 195.342911,327.806152 
	C195.475372,327.441772 195.607834,327.077362 195.740280,326.712982 
	C193.221741,327.806152 190.796600,329.398499 188.165619,329.890930 
	C182.291580,330.990234 176.411194,327.433258 176.108231,322.536957 
	C175.708099,316.070038 179.289413,310.300140 186.821518,309.041290 
	C190.685287,308.395569 194.609589,308.112122 198.506653,307.665833 
	C199.359665,301.388275 197.557007,299.914001 191.073059,301.996185 
M197.584213,314.259766 
	C193.657257,313.778198 189.633423,313.254364 186.785522,316.826721 
	C185.945999,317.879761 185.134796,320.226471 185.648056,320.816132 
	C186.644806,321.961151 188.891144,323.178101 190.083908,322.775940 
	C193.696899,321.557739 197.567459,320.050659 197.584213,314.259766 
z"/>
<path fill="#575757" opacity="1.000000" stroke="none" 
	d="
M140.277603,337.332581 
	C138.220963,339.091583 136.578934,341.105835 134.487000,341.842560 
	C132.193878,342.650085 129.188797,342.984161 127.092850,342.101868 
	C126.149292,341.704681 126.659149,337.854706 126.514984,335.654358 
	C135.256973,334.109100 137.413467,331.432953 135.935837,323.473938 
	C134.220001,314.231934 132.020111,305.079803 129.838120,295.000824 
	C132.094391,295.000824 134.135742,295.095062 136.164871,294.977844 
	C138.920303,294.818726 139.819641,295.976379 140.093842,298.746246 
	C140.616745,304.028656 141.696854,309.255920 143.552704,314.684296 
	C146.561493,308.252167 149.570282,301.820007 152.661011,295.212708 
	C155.505844,295.212708 158.604538,295.212708 162.384125,295.212708 
	C159.461884,300.981201 156.826920,306.347839 154.044678,311.636993 
	C149.578979,320.126526 145.015869,328.564789 140.277603,337.332581 
z"/>
<path fill="#575757" opacity="1.000000" stroke="none" 
	d="
M502.963501,327.707306 
	C500.613800,316.732971 498.249207,306.166260 495.882446,295.589752 
	C504.404572,294.070831 504.492737,294.050262 506.269897,301.669220 
	C507.192108,305.622955 507.738312,309.664368 509.466705,314.306274 
	C512.535767,308.017456 515.604858,301.728638 518.784973,295.212189 
	C521.517029,295.212189 524.611023,295.212189 528.363831,295.212189 
	C525.827454,300.239166 523.568787,304.871704 521.172791,309.432068 
	C516.341187,318.628204 511.769928,327.989899 506.362152,336.837677 
	C504.664612,339.614990 500.822571,341.425720 497.582458,342.750305 
	C496.246429,343.296448 492.447327,341.575043 492.324799,340.572601 
	C492.044586,338.279816 491.734924,334.930481 496.171265,334.900177 
	C500.285309,334.872101 501.283783,330.993164 502.963501,327.707306 
z"/>
<path fill="#575757" opacity="1.000000" stroke="none" 
	d="
M960.921082,329.061768 
	C949.238525,331.909271 944.446228,327.263733 942.125183,318.024048 
	C939.876160,309.070892 947.336670,296.616241 956.215637,294.411560 
	C961.251099,293.161224 966.643066,293.219543 970.566528,297.238159 
	C974.505554,301.272766 975.668030,306.344727 974.548096,312.101990 
	C973.449463,317.749207 971.469604,322.791321 966.956421,326.440796 
	C965.404297,327.695862 963.228882,328.180115 960.921082,329.061768 
M964.008606,302.547211 
	C958.705994,300.045654 956.731262,300.263275 954.078430,305.448975 
	C952.315613,308.895172 951.433228,313.044739 951.246460,316.931854 
	C951.160095,318.731750 953.308838,321.465546 955.117920,322.280518 
	C956.697205,322.991943 959.488159,322.072601 961.274475,321.052216 
	C965.391235,318.700439 967.937256,308.703094 964.008606,302.547211 
z"/>
<path fill="#575757" opacity="1.000000" stroke="none" 
	d="
M888.026733,309.349854 
	C889.778870,303.722748 891.997314,298.735077 897.098999,296.026489 
	C902.422791,293.199951 908.446899,292.364441 913.297058,296.119598 
	C919.008484,300.541687 919.024170,307.063324 916.576111,313.967285 
	C909.949829,313.967285 903.177917,313.967285 896.457642,313.967285 
	C895.410767,323.280121 900.365662,325.060974 912.779602,319.926483 
	C913.528503,321.638245 914.280945,323.358154 915.022400,325.053070 
	C906.907043,332.482269 893.939331,331.607330 888.959534,323.442200 
	C886.267822,319.028564 887.070923,314.413452 888.026733,309.349854 
M903.814453,301.055603 
	C901.700684,302.944122 899.586914,304.832642 897.473083,306.721161 
	C897.755127,307.144897 898.037109,307.568604 898.319153,307.992340 
	C901.253235,307.992340 904.190308,308.074005 907.120605,307.968842 
	C909.920166,307.868347 910.736389,306.348816 908.958557,304.206390 
	C907.840881,302.859344 906.068054,302.055908 903.814453,301.055603 
z"/>
<path fill="#575757" opacity="1.000000" stroke="none" 
	d="
M364.629089,296.141113 
	C369.647491,301.568329 369.998627,307.398743 367.547028,313.935455 
	C360.936707,313.935455 354.310944,313.935455 346.250916,313.935455 
	C347.425781,316.957123 347.672638,320.152954 349.375702,321.480072 
	C354.019806,325.098907 358.606293,321.935608 363.619995,319.798279 
	C364.457947,321.632690 365.282135,323.436951 366.150269,325.337433 
	C361.156311,329.552246 355.383362,330.625183 349.441071,329.889954 
	C340.174438,328.743347 336.769775,319.783264 338.584473,312.954956 
	C339.692993,308.783752 340.701080,304.318695 342.989746,300.785980 
	C347.272125,294.175781 356.130951,291.689362 364.629089,296.141113 
M359.943237,303.683350 
	C358.176392,302.834259 355.867645,300.842926 354.754211,301.371124 
	C352.350922,302.511322 350.561279,304.944977 348.520569,306.849396 
	C352.218262,307.997162 355.014923,308.065521 357.806519,307.976013 
	C360.122711,307.901764 362.025574,307.379395 359.943237,303.683350 
z"/>
<path fill="#575757" opacity="1.000000" stroke="none" 
	d="
M675.666382,320.144775 
	C681.181396,325.645050 686.222351,321.545898 691.316650,320.120758 
	C693.798889,326.589142 691.572876,329.303192 682.798584,329.967468 
	C669.830811,330.949280 663.872620,324.017487 666.245117,310.395111 
	C667.925598,300.746185 673.143860,293.610901 685.351746,293.986328 
	C691.361938,294.171204 695.898132,298.586304 695.991821,304.567627 
	C696.038269,307.531830 695.999939,310.497345 695.999939,313.884552 
	C688.565247,313.884552 681.470520,313.884552 673.793091,313.884552 
	C674.416992,316.237396 674.897583,318.049835 675.666382,320.144775 
M687.798035,307.566681 
	C688.542297,304.297638 687.163513,301.695679 684.125488,301.196045 
	C679.703735,300.468811 677.893616,304.082977 675.532593,307.941711 
	C679.828491,307.941711 683.410889,307.941711 687.798035,307.566681 
z"/>
<path fill="#575757" opacity="1.000000" stroke="none" 
	d="
M641.000000,305.301605 
	C641.000000,308.251373 641.000000,310.745697 641.000000,313.816071 
	C633.676147,313.816071 626.458984,313.816071 619.180481,313.816071 
	C620.367676,323.655457 624.846680,325.171234 636.162354,320.115906 
	C638.933044,326.426544 636.756470,329.226898 627.964233,329.956848 
	C615.515259,330.990356 608.882751,324.725586 611.221008,310.579010 
	C612.786804,301.105713 617.952209,293.666962 630.142883,293.985291 
	C636.404907,294.148834 640.623291,298.292175 641.000000,305.301605 
M621.903992,305.635651 
	C622.217468,306.420197 622.495239,307.866882 622.849915,307.886047 
	C626.102234,308.061554 629.367981,307.989319 634.528259,307.989319 
	C632.447510,305.057068 631.538147,302.522827 629.769531,301.548920 
	C626.291504,299.633698 624.332275,302.657684 621.903992,305.635651 
z"/>
<path fill="#575757" opacity="1.000000" stroke="none" 
	d="
M232.001282,325.992676 
	C232.903931,319.907257 233.687363,314.255493 234.751312,308.657043 
	C235.519012,304.617554 234.075928,301.545593 230.760880,301.032501 
	C227.696793,300.558289 223.481415,303.658478 222.995789,306.724182 
	C221.849533,313.960297 220.692230,321.194672 219.492035,328.726990 
	C216.953262,328.726990 214.210770,328.726990 210.815933,328.726990 
	C212.532593,317.491943 214.218231,306.459900 215.957642,295.075989 
	C222.009872,294.764832 227.779938,295.291321 233.605423,294.237823 
	C239.963882,293.087921 244.593964,298.402649 243.896576,304.882141 
	C243.147293,311.843903 242.104294,318.784973 240.835907,325.669952 
	C240.602295,326.937988 238.643250,328.834625 237.551239,328.787964 
	C235.664856,328.707367 232.115631,331.067963 232.001282,325.992676 
z"/>
<path fill="#575757" opacity="1.000000" stroke="none" 
	d="
M468.994843,316.833252 
	C468.219360,321.077637 467.447906,324.874451 466.654663,328.778442 
	C463.750031,328.778442 460.977905,328.778442 458.268951,328.778442 
	C459.957458,317.622192 461.614594,306.673340 463.466919,294.434814 
	C466.099365,295.215149 468.725952,296.116943 471.419708,296.717651 
	C472.233185,296.899048 473.324707,296.406708 474.132050,295.947357 
	C478.607544,293.401184 483.047607,292.776978 487.461182,296.002045 
	C492.188782,299.456543 491.337616,304.548981 490.800751,309.204651 
	C490.057098,315.653656 488.634766,322.024384 487.449493,328.731476 
	C484.957001,328.731476 482.209778,328.731476 478.968842,328.731476 
	C479.769257,323.154968 480.542816,317.739990 481.325928,312.326385 
	C481.535706,310.876038 481.923737,309.434509 481.969299,307.980804 
	C482.067963,304.832855 482.551697,301.216339 477.837860,301.050049 
	C473.582733,300.899963 470.280060,304.107483 469.976318,308.114349 
	C469.766663,310.880249 469.332642,313.629181 468.994843,316.833252 
z"/>
<path fill="#575757" opacity="1.000000" stroke="none" 
	d="
M117.000488,301.089722 
	C117.398201,298.913483 117.795395,297.182922 118.242165,295.236328 
	C120.885818,295.236328 123.500420,295.236328 126.561394,295.236328 
	C124.930618,306.330200 123.296463,317.447083 121.599342,328.992279 
	C118.855499,328.137085 115.207237,331.260986 113.696129,326.856537 
	C111.044243,327.894775 108.430534,329.560242 105.660126,329.883759 
	C96.924553,330.903931 92.091164,324.107452 94.058144,314.032898 
	C94.679718,310.849335 95.432953,307.689270 95.973862,304.492737 
	C96.485954,301.466431 96.798622,298.406403 97.217468,295.220642 
	C100.206474,295.220642 102.964104,295.220642 105.750008,295.220642 
	C104.814011,302.343109 103.804756,309.233795 103.047966,316.152100 
	C102.723793,319.115570 102.566566,322.837280 106.772568,322.836578 
	C110.398842,322.835999 114.018166,321.123901 114.848969,317.029053 
	C115.883728,311.928955 116.310608,306.705505 117.000488,301.089722 
z"/>
<path fill="#575757" opacity="1.000000" stroke="none" 
	d="
M1068.155762,329.386047 
	C1065.681763,329.773193 1063.448853,330.328674 1061.410034,329.919037 
	C1053.507568,328.331390 1051.484497,327.252625 1050.184692,318.203247 
	C1053.957886,318.273926 1057.931274,316.365784 1060.539795,321.542328 
	C1061.137817,322.729187 1066.086670,322.803802 1068.327515,321.805695 
	C1071.048950,320.593445 1071.065918,317.839294 1067.786133,316.403961 
	C1065.875854,315.568024 1063.853516,314.944855 1061.831787,314.416199 
	C1057.438354,313.267303 1053.628174,311.106445 1053.138306,306.321320 
	C1052.643799,301.492493 1055.670898,298.173492 1059.739380,295.782013 
	C1066.246704,291.956848 1077.179688,294.058533 1079.887207,299.724213 
	C1082.120850,304.398315 1081.170410,305.942780 1076.020874,305.998413 
	C1075.024048,306.009186 1074.026978,305.999939 1073.030029,305.999939 
	C1073.197510,305.514374 1073.364990,305.028809 1073.532471,304.543213 
	C1070.816895,303.371582 1068.175659,301.852173 1065.339233,301.245911 
	C1064.517334,301.070251 1062.647949,303.368256 1062.219849,304.816345 
	C1062.009888,305.526337 1063.822754,307.219727 1065.039795,307.864288 
	C1066.417603,308.594025 1068.156616,308.635681 1069.734009,308.996063 
	C1076.784790,310.607117 1079.342285,313.463928 1078.999390,319.331635 
	C1078.707520,324.326721 1074.361450,328.369476 1068.155762,329.386047 
z"/>
<path fill="#575757" opacity="1.000000" stroke="none" 
	d="
M796.869873,300.993591 
	C795.213257,301.852356 793.163391,302.510284 792.906982,303.592896 
	C791.673584,308.801483 790.705322,314.103027 790.179871,319.424561 
	C790.069214,320.545227 792.213684,321.888550 793.319031,323.129272 
	C794.025696,322.910126 794.732422,322.691010 795.439087,322.471863 
	C794.797546,324.696411 794.585388,328.520142 793.429871,328.830414 
	C790.551636,329.603180 786.409485,329.867279 784.343323,328.286041 
	C782.272034,326.700775 781.112000,322.569092 781.301208,319.667542 
	C781.697510,313.590881 783.242798,307.589172 784.379578,301.200836 
	C782.208130,301.048889 780.775024,300.948608 778.864258,300.814880 
	C779.356873,298.839172 779.770508,297.180542 780.264709,295.198578 
	C787.332947,296.013184 785.868530,290.766113 786.055725,286.339355 
	C788.868591,286.339355 791.609314,286.339355 794.919556,286.339355 
	C794.604797,289.043610 794.284119,291.798706 793.936401,294.786469 
	C796.203247,294.952454 797.979980,295.082550 800.489685,295.266296 
	C799.278015,297.442108 798.290527,299.215271 796.869873,300.993591 
z"/>
<path fill="#575757" opacity="1.000000" stroke="none" 
	d="
M381.958008,316.781921 
	C381.185303,321.031433 380.444458,324.834991 379.674988,328.785522 
	C376.790436,328.785522 374.021545,328.785522 371.241486,328.785522 
	C373.651611,312.631470 376.030151,296.689056 378.467407,280.353210 
	C380.856018,280.353210 383.592010,280.353210 387.070618,280.353210 
	C385.378998,292.333527 383.684448,304.334747 381.958008,316.781921 
z"/>
<path fill="#575757" opacity="1.000000" stroke="none" 
	d="
M403.002899,283.311646 
	C401.173370,296.150635 399.349182,308.554840 397.507233,320.956390 
	C397.436737,321.431183 397.123047,321.868500 397.043671,322.343475 
	C395.886078,329.272797 395.890991,329.273621 387.820068,328.702362 
	C390.207916,312.522247 392.587341,296.399414 394.981934,280.173645 
	C398.086365,280.173645 400.707306,280.173645 403.476349,280.173645 
	C403.308533,281.136353 403.156860,282.006378 403.002899,283.311646 
z"/>
<path fill="#575757" opacity="1.000000" stroke="none" 
	d="
M931.000244,311.164001 
	C930.322571,316.597351 929.788879,321.620667 928.843994,326.565338 
	C928.659363,327.531525 926.979004,328.622009 925.811584,328.893097 
	C924.107422,329.288788 922.243164,328.994843 919.964539,328.994843 
	C920.701477,322.647125 921.319031,316.714783 922.101501,310.804260 
	C922.611694,306.950531 923.471558,303.142639 923.966797,299.287537 
	C924.321716,296.524780 925.070984,294.867371 928.437988,294.910767 
	C933.470337,294.975708 938.510498,294.440613 943.688904,294.152924 
	C943.296753,298.834839 942.000916,302.419556 936.582825,302.860596 
	C931.754211,303.253632 931.583252,307.191589 931.000244,311.164001 
z"/>
<path fill="#575757" opacity="1.000000" stroke="none" 
	d="
M655.171631,295.100128 
	C656.678650,295.309418 657.841858,295.719818 658.887939,295.519409 
	C661.476440,295.023376 664.011353,294.247772 667.238159,293.410583 
	C666.187744,298.416870 666.318359,302.036560 660.305725,302.574921 
	C654.797241,303.068176 654.729431,308.964661 654.028015,313.404999 
	C653.222778,318.502716 652.611206,323.631012 651.913269,328.762146 
	C648.705505,328.762146 645.946228,328.762146 643.226318,328.762146 
	C644.924072,317.487671 646.587708,306.440063 648.306946,295.023254 
	C650.536133,295.023254 652.655273,295.023254 655.171631,295.100128 
z"/>
<path fill="#575757" opacity="1.000000" stroke="none" 
	d="
M775.022766,297.445068 
	C773.604431,308.057953 772.203552,318.236420 770.762817,328.704712 
	C768.024536,328.704712 765.281677,328.704712 761.948792,328.704712 
	C763.623169,317.568573 765.280945,306.543030 767.011536,295.033051 
	C769.598572,295.033051 772.055054,294.983948 774.501343,295.118927 
	C774.715088,295.130707 774.862244,296.351501 775.022766,297.445068 
z"/>
<path fill="#575757" opacity="1.000000" stroke="none" 
	d="
M1046.037231,305.281311 
	C1044.994995,313.295441 1043.980957,320.864227 1042.930420,328.705627 
	C1039.922729,328.705627 1037.040771,328.705627 1034.079590,328.705627 
	C1035.819580,317.429199 1037.521240,306.401611 1039.247681,295.212585 
	C1042.188477,295.212585 1044.940430,295.212585 1048.150513,295.212585 
	C1047.414673,298.609222 1046.740112,301.722595 1046.037231,305.281311 
z"/>
<path fill="#575757" opacity="1.000000" stroke="none" 
	d="
M771.213989,286.999542 
	C769.961243,286.936462 769.151306,286.873810 768.295044,286.807587 
	C768.631836,284.601288 768.941833,282.571014 769.289795,280.291443 
	C772.102234,280.291443 774.974426,280.291443 778.104431,280.291443 
	C777.572510,282.636047 777.115906,284.648590 776.582397,286.999969 
	C774.918762,286.999969 773.287842,286.999969 771.213989,286.999542 
z"/>
<path fill="#575757" opacity="1.000000" stroke="none" 
	d="
M1042.427246,286.996643 
	C1041.517822,284.895142 1041.041748,282.796326 1040.473389,280.291199 
	C1043.908813,280.291199 1046.639038,280.291199 1050.036743,280.291199 
	C1049.655396,282.441589 1049.285889,284.525513 1048.847168,286.999359 
	C1046.752563,286.999359 1044.806519,286.999359 1042.427246,286.996643 
z"/>
<path fill="#FFFFFF" opacity="1.000000" stroke="none" 
	d="
M190.350021,163.746979 
	C190.729706,165.225876 190.872681,166.347961 191.051453,167.750977 
	C175.838837,167.750977 160.910065,167.750977 145.088562,167.750977 
	C150.524841,158.881104 155.761963,150.261292 161.074875,141.688477 
	C166.473648,132.977112 171.947205,124.312065 177.613571,115.266693 
	C181.840149,131.538864 185.976730,147.464523 190.350021,163.746979 
z"/>
<path fill="#FFFFFF" opacity="1.000000" stroke="none" 
	d="
M1071.496094,150.233612 
	C1085.299194,149.417252 1093.808228,155.720245 1096.343506,165.837708 
	C1099.815063,179.691940 1095.221069,191.007675 1085.047241,200.463013 
	C1076.893311,208.041229 1067.234375,209.891388 1056.867432,206.919037 
	C1048.147095,204.418808 1043.990112,197.925903 1042.914307,188.905838 
	C1041.118408,173.849503 1047.089355,162.580795 1059.284912,154.498566 
	C1062.647095,152.270325 1067.125732,151.726471 1071.496094,150.233612 
z"/>
<path fill="#FFFFFF" opacity="1.000000" stroke="none" 
	d="
M405.000061,182.194824 
	C407.422729,157.638260 427.595276,142.097290 450.490845,145.282928 
	C465.106110,147.316467 471.134308,157.451309 468.712799,173.365311 
	C466.212311,189.798721 456.637543,201.783234 440.321014,207.214417 
	C426.700348,211.748230 414.379639,208.327118 408.436584,197.614700 
	C406.051422,193.315460 406.073578,187.680710 405.000061,182.194824 
z"/>
<path fill="#FFFFFF" opacity="1.000000" stroke="none" 
	d="
M713.154907,145.000000 
	C718.862915,145.960831 724.650024,145.827042 729.231812,148.111099 
	C738.675232,152.818756 740.923828,162.064117 739.866516,171.672104 
	C738.096436,187.757736 726.872437,202.559875 711.365967,207.202377 
	C700.156067,210.558533 689.790466,209.975769 681.128540,200.706711 
	C675.115479,194.272247 674.984619,186.337128 676.211792,178.823135 
	C679.233276,160.322815 691.505920,148.632767 710.195435,145.026245 
	C710.998169,144.871353 711.856018,145.002228 713.154907,145.000000 
z"/>
<path fill="#FFFFFF" opacity="1.000000" stroke="none" 
	d="
M72.606018,321.999817 
	C69.023880,322.000000 65.886589,322.000000 62.469509,322.000000 
	C63.053291,317.689728 63.605396,313.613312 64.230225,309.000000 
	C67.480858,309.000000 70.754829,309.132660 74.012718,308.960632 
	C76.948479,308.805603 79.596489,309.403290 80.035538,312.556519 
	C80.331032,314.678802 79.960854,317.429199 78.757874,319.069305 
	C77.626617,320.611633 75.012520,321.066376 72.606018,321.999817 
z"/>
<path fill="#FFFFFF" opacity="1.000000" stroke="none" 
	d="
M71.027969,290.000061 
	C72.304245,290.000092 73.134918,289.979645 73.964279,290.003937 
	C77.321121,290.102142 80.314072,291.014099 80.928093,294.797882 
	C81.444260,297.978607 77.919167,301.643036 74.187325,301.946106 
	C71.393066,302.172974 68.565605,301.990875 65.377274,301.990875 
	C65.940186,298.653900 66.198257,295.475189 67.123459,292.504242 
	C67.462349,291.416107 69.382805,290.820435 71.027969,290.000061 
z"/>
<path fill="#FFFFFF" opacity="1.000000" stroke="none" 
	d="
M1014.643738,302.999817 
	C1011.929749,303.000000 1009.658630,303.000000 1006.820557,303.000000 
	C1007.344116,298.521057 1007.807922,294.553375 1008.272461,290.580200 
	C1017.055969,288.932068 1022.266968,290.478943 1022.945984,294.930267 
	C1023.556213,298.931213 1020.457581,302.112610 1014.643738,302.999817 
z"/>
<path fill="#FFFFFF" opacity="1.000000" stroke="none" 
	d="
M259.665222,304.830017 
	C262.274872,302.116730 264.827942,299.583679 268.269379,302.210602 
	C269.508423,303.156403 270.168304,305.544525 270.169434,307.275024 
	C270.171295,310.175873 269.446259,313.079193 269.003082,315.977814 
	C268.312988,320.491943 264.343842,323.732269 260.600952,322.857422 
	C257.537628,322.141479 255.129868,317.398041 256.207642,313.622498 
	C257.038086,310.713501 258.307251,307.929749 259.665222,304.830017 
z"/>
<path fill="#FFFFFF" opacity="1.000000" stroke="none" 
	d="
M443.460052,310.711029 
	C440.280731,310.926514 437.485870,310.926514 434.104004,310.926514 
	C436.475067,306.185181 438.710938,301.714081 441.510284,296.116333 
	C442.435516,301.816071 443.139984,306.155823 443.460052,310.711029 
z"/>
<path fill="#FFFFFF" opacity="1.000000" stroke="none" 
	d="
M197.485504,314.647766 
	C197.567459,320.050659 193.696899,321.557739 190.083908,322.775940 
	C188.891144,323.178101 186.644806,321.961151 185.648056,320.816132 
	C185.134796,320.226471 185.945999,317.879761 186.785522,316.826721 
	C189.633423,313.254364 193.657257,313.778198 197.485504,314.647766 
z"/>
<path fill="#FFFFFF" opacity="1.000000" stroke="none" 
	d="
M964.303223,302.832764 
	C967.937256,308.703094 965.391235,318.700439 961.274475,321.052216 
	C959.488159,322.072601 956.697205,322.991943 955.117920,322.280518 
	C953.308838,321.465546 951.160095,318.731750 951.246460,316.931854 
	C951.433228,313.044739 952.315613,308.895172 954.078430,305.448975 
	C956.731262,300.263275 958.705994,300.045654 964.303223,302.832764 
z"/>
<path fill="#FFFFFF" opacity="1.000000" stroke="none" 
	d="
M904.201782,301.032104 
	C906.068054,302.055908 907.840881,302.859344 908.958557,304.206390 
	C910.736389,306.348816 909.920166,307.868347 907.120605,307.968842 
	C904.190308,308.074005 901.253235,307.992340 898.319153,307.992340 
	C898.037109,307.568604 897.755127,307.144897 897.473083,306.721161 
	C899.586914,304.832642 901.700684,302.944122 904.201782,301.032104 
z"/>
<path fill="#FFFFFF" opacity="1.000000" stroke="none" 
	d="
M360.012482,304.072906 
	C362.025574,307.379395 360.122711,307.901764 357.806519,307.976013 
	C355.014923,308.065521 352.218262,307.997162 348.520569,306.849396 
	C350.561279,304.944977 352.350922,302.511322 354.754211,301.371124 
	C355.867645,300.842926 358.176392,302.834259 360.012482,304.072906 
z"/>
<path fill="#FFFFFF" opacity="1.000000" stroke="none" 
	d="
M687.395691,307.754211 
	C683.410889,307.941711 679.828491,307.941711 675.532593,307.941711 
	C677.893616,304.082977 679.703735,300.468811 684.125488,301.196045 
	C687.163513,301.695679 688.542297,304.297638 687.395691,307.754211 
z"/>
<path fill="#FFFFFF" opacity="1.000000" stroke="none" 
	d="
M622.167236,305.336487 
	C624.332275,302.657684 626.291504,299.633698 629.769531,301.548920 
	C631.538147,302.522827 632.447510,305.057068 634.528259,307.989319 
	C629.367981,307.989319 626.102234,308.061554 622.849915,307.886047 
	C622.495239,307.866882 622.217468,306.420197 622.167236,305.336487 
z"/>
</svg>