<svg xmlns="http://www.w3.org/2000/svg" width="721.337" height="484.875" viewBox="0 0 721.337 484.875"><g transform="translate(-485.999 -203)"><text transform="translate(509.747 586)" fill="#fff" font-size="355" font-family="SegoeUI, Segoe UI"><tspan x="0" y="0">404</tspan></text><g transform="translate(485.999 244.193)"><path d="M732.407,372.727a147.816,147.816,0,0,1-4.33,35.668q-1.458,5.9-3.387,11.55a136.4,136.4,0,0,1-5.463,13.669q-1.562,3.381-3.3,6.626a89.144,89.144,0,0,1-7.453,35.821,92.347,92.347,0,0,1-44.817,46.177,94.27,94.27,0,0,1-40.01,9.186H148.014a119.838,119.838,0,0,1-60.275-16.113l-.282-.159q-3.913-2.291-7.631-4.85a119.67,119.67,0,0,1-15.66-12.91,116.528,116.528,0,0,1-17.215-21.331A113.825,113.825,0,0,1,29.443,415.29,143.312,143.312,0,0,1,11.07,344.322c0-33.071,10.754-63.239,28.423-86.076a121.016,121.016,0,0,1,12.071-13.43,112.33,112.33,0,0,1,13.8-11.3,107.408,107.408,0,0,1,12.248-7.349c1.77-.9,3.546-1.751,5.353-2.542,1.586-.7,3.191-1.36,4.814-1.978q2.921-1.108,5.916-2.039t5.91-1.629q4.287-1.047,8.721-1.7c2.45-.361,4.9-.612,7.349-.8,1.948-.147,3.913-.227,5.892-.251h1.072c2.18,0,4.348.086,6.5.233.227-.453.472-.913.7-1.36.857-1.635,1.745-3.264,2.64-4.857a.153.153,0,0,1,0-.043c.153-.282.306-.557.465-.827.723-1.3,1.476-2.6,2.248-3.877.355-.612.7-1.188,1.066-1.764a4.686,4.686,0,0,1,.251-.416q.551-.919,1.121-1.837,2.836-4.532,5.9-8.9l.521-.747c.318-.453.612-.894.968-1.347.845-1.182,1.715-2.37,2.591-3.534.612-.833,1.225-1.66,1.886-2.45q2.388-3.062,4.9-6.124t5.218-6.045c.245-.276.49-.545.747-.815l2.615-2.854h0c.129-.135.239-.257.361-.38h0c.312-.337.612-.674.949-1,1.4-1.488,2.842-2.946,4.287-4.4a233.453,233.453,0,0,1,23.456-20.437c.325-.257.655-.5.98-.747,1.556-1.17,3.136-2.327,4.716-3.466a248.216,248.216,0,0,1,27.2-16.964c.649-.374,1.311-.723,1.978-1.066a259.671,259.671,0,0,1,26.022-11.979c4.844-1.917,9.8-3.717,14.784-5.365,3.319-1.09,6.651-2.125,10.025-3.1q7.912-2.278,15.935-4.085a283.764,283.764,0,0,1,47.916-6.528q7.349-.374,14.863-.386a284.78,284.78,0,0,1,71.654,9.064,2.584,2.584,0,0,0,2.223,1.157h2.058c.894.245,1.782.49,2.676.747q7.49,2.156,14.766,4.71l1.225.441a263.61,263.61,0,0,1,34.853,15.311,251.509,251.509,0,0,1,29.182,18.03q2.15,1.543,4.238,3.111,2.535-1.623,5.157-3.111a101.429,101.429,0,0,1,21.361-9.107,97.437,97.437,0,0,1,47.916-1.874c20.363,4.318,38.8,15.035,53.685,30.278a125.274,125.274,0,0,1,16.1,20.443c.337.527.674,1.06,1,1.6a134.733,134.733,0,0,1,10.252,20.437c.1.263.208.508.3.766a141.508,141.508,0,0,1,6.308,20.424c.073.355.159.7.233,1.059a147.044,147.044,0,0,1,3.013,20.437,3.956,3.956,0,0,0,.049.753q.386,5.334.392,10.779c0,3.246-.11,6.467-.312,9.664,0,.349-.049.71-.08,1.072-.055.925-.135,1.837-.214,2.768a116.225,116.225,0,0,1,13.094,12.353q2.676,2.921,5.181,6.063A128.985,128.985,0,0,1,716.1,305.568,143.418,143.418,0,0,1,732.407,372.727Z" transform="translate(-11.07 -87.76)" fill="#6c63ff" opacity="0.1"/><path d="M711.545,779.113c0,4.183-14.41,8.1-39.556,11.471H196.356a119.84,119.84,0,0,1-60.275-16.113l-.282-.159c7.227-2.633,20.271-5.089,38.025-7.306h0l.8-.1c7.962-.974,16.86-1.9,26.585-2.774a6.066,6.066,0,0,0,.741-.067h0q11.575-1.029,24.626-1.929c.276,0,.545-.049.821-.061q5.034-.361,10.276-.686h0l1.347-.086c25.446-1.58,54.371-2.842,85.739-3.674h.037q6.59-.184,13.32-.325,7.484-.178,15.151-.312c3.9-.086,7.851-.147,11.814-.208h.092c17.877-.269,36.347-.4,55.234-.4,46.7,0,90.847.851,129.962,2.382h.11c6.014.233,11.918.49,17.674.753l4.9.233q9.744.466,18.985,1h0C664.487,764.868,711.545,771.562,711.545,779.113Z" transform="translate(-59.412 -346.901)" fill="#6c63ff" opacity="0.1"/><g transform="translate(380.542 241.899)" opacity="0.2"><path d="M683.087,746.238a11.632,11.632,0,0,1-.227,1.966q-6.394-1.017-12.861-1.837v-.527a10.337,10.337,0,0,1,1.531-5.193,5.7,5.7,0,0,1,10.368.318,10.332,10.332,0,0,1,1.188,5.273Z" transform="translate(-646.998 -581.47)" fill="#3f3d56"/><ellipse cx="8.58" cy="6.553" rx="8.58" ry="6.553" transform="translate(23.073 162.467) rotate(-88.19)" fill="#3f3d56"/><ellipse cx="8.58" cy="6.553" rx="8.58" ry="6.553" transform="translate(23.407 151.982) rotate(-88.19)" fill="#3f3d56"/><ellipse cx="8.58" cy="6.553" rx="8.58" ry="6.553" transform="translate(23.735 141.497) rotate(-88.19)" fill="#3f3d56"/><ellipse cx="8.58" cy="6.553" rx="8.58" ry="6.553" transform="translate(24.063 131.012) rotate(-88.19)" fill="#3f3d56"/><path d="M641.032,532.845a30.418,30.418,0,0,1-2.327-3.675l17.307-2.284-18.63-.447a31.467,31.467,0,0,1,.19-24.889l24.57,13.749-22.507-17.662a31.405,31.405,0,1,1,50.733,36.745,31.108,31.108,0,0,1,3.4,5.836l-22.715,10.9,24.087-7.245a31.442,31.442,0,0,1-6.014,29.341,31.405,31.405,0,1,1-49.337-1.556,31.4,31.4,0,0,1,1.225-38.815Z" transform="translate(-632.44 -482.747)" fill="#6c63ff"/><path d="M696.475,598.807A31.234,31.234,0,0,1,689.126,618a31.405,31.405,0,1,1-49.337-1.556C635.766,610.976,696.585,595.286,696.475,598.807Z" transform="translate(-632.44 -527.532)" opacity="0.1"/></g><g transform="translate(287.453 241.899)" opacity="0.2"><path d="M531.088,746.238a11.632,11.632,0,0,1-.227,1.966q-6.394-1.017-12.861-1.837v-.527a10.337,10.337,0,0,1,1.531-5.193,5.7,5.7,0,0,1,10.368.318,10.331,10.331,0,0,1,1.188,5.273Z" transform="translate(-494.998 -581.47)" fill="#3f3d56"/><ellipse cx="8.58" cy="6.553" rx="8.58" ry="6.553" transform="translate(23.066 162.47) rotate(-88.19)" fill="#3f3d56"/><ellipse cx="8.58" cy="6.553" rx="8.58" ry="6.553" transform="translate(23.4 151.985) rotate(-88.19)" fill="#3f3d56"/><ellipse cx="8.58" cy="6.553" rx="8.58" ry="6.553" transform="translate(23.728 141.5) rotate(-88.19)" fill="#3f3d56"/><ellipse cx="8.58" cy="6.553" rx="8.58" ry="6.553" transform="translate(24.056 131.015) rotate(-88.19)" fill="#3f3d56"/><path d="M489.032,532.845a30.418,30.418,0,0,1-2.327-3.674l17.307-2.284-18.63-.447a31.466,31.466,0,0,1,.19-24.889l24.57,13.749-22.507-17.662a31.405,31.405,0,1,1,50.733,36.745,31.109,31.109,0,0,1,3.4,5.836l-22.715,10.9,24.087-7.245a31.442,31.442,0,0,1-6.014,29.341,31.405,31.405,0,1,1-49.337-1.556,31.405,31.405,0,0,1,1.225-38.815Z" transform="translate(-480.44 -482.747)" fill="#6c63ff"/><path d="M544.475,598.807A31.233,31.233,0,0,1,537.126,618a31.405,31.405,0,1,1-49.337-1.556C483.766,610.976,544.585,595.286,544.475,598.807Z" transform="translate(-480.44 -527.532)" opacity="0.1"/></g><g transform="translate(508.382 96.276)" opacity="0.2"><path d="M938.594,752.015a22.846,22.846,0,0,1-.447,3.724q-12.31-1.966-24.8-3.515v-1.01a19.9,19.9,0,0,1,2.952-10c2.45-3.84,6.124-6.247,10.185-6.124s7.594,2.762,9.8,6.737a19.922,19.922,0,0,1,2.309,10.191Z" transform="translate(-869.155 -434.923)" fill="#3f3d56"/><ellipse cx="16.523" cy="12.622" rx="16.523" ry="12.622" transform="translate(44.354 312.648) rotate(-88.19)" fill="#3f3d56"/><ellipse cx="16.523" cy="12.622" rx="16.523" ry="12.622" transform="translate(44.991 292.463) rotate(-88.19)" fill="#3f3d56"/><ellipse cx="16.523" cy="12.622" rx="16.523" ry="12.622" transform="translate(45.633 272.277) rotate(-88.19)" fill="#3f3d56"/><ellipse cx="16.523" cy="12.622" rx="16.523" ry="12.622" transform="translate(45.563 251.218) rotate(-88.282)" fill="#3f3d56"/><path d="M857.681,341.3a60.8,60.8,0,0,1-4.477-7.061l33.316-4.4-35.857-.864a60.569,60.569,0,0,1,.355-47.916l47.31,26.463-43.323-34A60.458,60.458,0,1,1,952.668,344.3a60.449,60.449,0,0,1,6.547,11.238l-43.733,21,46.367-13.963a60.477,60.477,0,0,1-11.532,56.435,60.458,60.458,0,1,1-94.987-2.995,60.477,60.477,0,0,1,2.352-74.716Z" transform="translate(-841.186 -244.965)" fill="#6c63ff"/><path d="M964.442,468.209a60.225,60.225,0,0,1-14.086,36.954,60.458,60.458,0,1,1-94.987-2.995C847.567,491.628,964.656,461.43,964.442,468.209Z" transform="translate(-841.201 -331.109)" opacity="0.1"/></g><path d="M157.82,427.379l6.424-.018H173.3l11.452-186.042L298.169,52.061l-4.93-5.291V33.37L170.583,236.933Z" transform="translate(-61.155 -12.933)" fill="#f1c0c0"/><path d="M169.43,435.84H177.8L189.254,249.8,302.669,60.541l-4.93-5.291L180.754,246.963Z" transform="translate(-65.655 -21.413)" opacity="0.1"/><path d="M126.91,671.028l293.871,22.488.251.018,284.4-17.491.214-.012v-12.01l-313.377-5.751-261.45-.251h-1.911l-.208,1.347Z" transform="translate(-49.175 -255.033)" fill="#f1c0c0"/><path d="M126.91,671.028l293.871,22.488.251.018,284.4-17.491.214-.233V664.273H705.4l-284.618,9.5L130.823,658.02h-.043l-.514.337-1.562,1.01Z" transform="translate(-49.175 -255.033)" opacity="0.1"/><path d="M126.91,671.241l293.871,22.488V673.991L130.266,658.57l-1.562,1.01Z" transform="translate(-49.175 -255.246)" opacity="0.1"/><path d="M378.88,46.608,508.438,185.665l-4.005,244.6,11.005,1.329.184.025h11.005l1.317-235.452,242.6,81.036,4.091,144.287,8.856.992,3,.337L779.546,267.2l-253.6-89.034L386.884,33.6h-8Z" transform="translate(-146.833 -13.022)" fill="#f1c0c0"/><path d="M620.65,291.7l1,4.5,242.6,81.036,4.091,144.287,8.856.992-6.945-148.28Z" transform="translate(-240.537 -113.056)" opacity="0.1"/><path d="M378.88,46.608,508.438,185.665l-4.005,244.6,11.005,1.329,3-253.935L378.88,33.6Z" transform="translate(-146.833 -13.022)" opacity="0.1"/><path d="M621.42,441.936,710.4,459.458l.031.006,155.843,30.7,7.135-2.86-.025-.5-.465-9.952-251.406-50.8Z" transform="translate(-240.836 -165.127)" fill="#f1c0c0"/><path d="M766.76,480.61l155.843,30.7,7.135-2.86-.025-.5Z" transform="translate(-297.166 -186.273)" opacity="0.1"/><path d="M776.49,350.56,778.9,483.052l1.243,67.973,10.956-.367,6.9-.233-2.143-197.947L791.1,350.9l-1.041-.337Z" transform="translate(-300.937 -135.869)" fill="#f1c0c0"/><path d="M776.65,350.51v.031l2.309,132.492,1.243,67.973,10.956-.367V350.51Z" transform="translate(-300.999 -135.849)" opacity="0.1"/><path d="M495.92,488.232a13.949,13.949,0,0,1,1.837,1.194,12.153,12.153,0,0,1,1.837,2.015c2.627,3.4,5.053,7.349,4.8,11.636a4.734,4.734,0,0,1-1.366,3.368c-1.084.925-2.639.968-4.06.968a8.645,8.645,0,0,1-4.5-.8c-1.335-.8-2.45-2.346-4.03-2.309a2.062,2.062,0,0,1-.674,0c-.545-.178-.655-.894-1.01-1.347-.612-.815-1.9-.612-2.866-.257s-2.027.888-2.976.478a3.092,3.092,0,0,1-1.292-1.292c-2.272-3.675-2.756-8.09-3.185-12.359-.263-2.6-2.272-11.452,3.27-9.437,2.45.882,4.74,2.646,6.969,3.938Z" transform="translate(-191.987 -239.704)" fill="#3f3d56"/><path d="M497.7,492.889a2.732,2.732,0,0,0,3.362-.135,5.065,5.065,0,0,0,1.635-3.172c.612-.19.925.612,1.317,1.1.686.833,2.082.821,2.707,1.709.435.612.337,1.464.643,2.156.4.894,1.384,1.36,2.058,2.082a7.091,7.091,0,0,1,1.347,2.689l1,3.013a14.889,14.889,0,0,1,.919,3.9,5.053,5.053,0,0,1-1.164,3.73c-1.347,1.451-3.558,1.6-5.512,1.562a7.092,7.092,0,0,1-1.935-.227,5.493,5.493,0,0,1-3.3-4.042,51.038,51.038,0,0,1-.68-5.4,21.171,21.171,0,0,0-1.531-5.132c-.539-1.274-2.021-3.172-2-4.526C497.011,492.2,497.329,492.6,497.7,492.889Z" transform="translate(-199.238 -243.486)" fill="#3f3d56"/><path d="M496.713,479.874a10.112,10.112,0,0,1-.5-2.689,11.7,11.7,0,0,1,1.684-5.206l-7,.949a3.1,3.1,0,0,0-2.266.992,2.449,2.449,0,0,0,0,2.26,11.556,11.556,0,0,1,.833,2.186,10.921,10.921,0,0,0,.227,1.966,4.163,4.163,0,0,0,.9,1.268,42.461,42.461,0,0,1,5,7.423c-.043-.073,4.22-3.374,4.048-4.452-.1-.612-1.329-1.347-1.721-1.935A9.854,9.854,0,0,1,496.713,479.874Z" transform="translate(-196.056 -236.674)" fill="#be6f72"/><path d="M508.445,358.04v6.032l-103.3,20.149-5.359,3.246H381.3v-3.4l101.491-24.521Z" transform="translate(-147.771 -138.768)" fill="#f1c0c0"/><path d="M508.445,367.89l-103.3,20.149-5.359,3.246H381.3L483.544,369.4Z" transform="translate(-147.771 -142.585)" opacity="0.1"/><path d="M453.693,723.579a8,8,0,0,0-9.738-2.07,2.565,2.565,0,0,0-.894.7c-.612.857-.221,2.039-.165,3.1.141,2.584-1.917,4.685-3.766,6.492a8.9,8.9,0,0,0-2.45,3.319,3.11,3.11,0,0,0,1.084,3.675,4.514,4.514,0,0,0,1.678.465,18.11,18.11,0,0,0,5.94.165,6.436,6.436,0,0,0,4.716-3.283,3.461,3.461,0,0,1,.79-1.3c1.078-.851,2.731.147,3.956-.459,1.01-.5,1.053-1.292,1.066-2.333C455.946,729.165,455.518,725.907,453.693,723.579Z" transform="translate(-175.952 -333.061)" fill="#6c63ff"/><path d="M480.189,720.61a20.164,20.164,0,0,1,.955,6.265,6.046,6.046,0,0,1-.57,3.57,4.878,4.878,0,0,1-3.191,1.837c-2.554.527-5.512.031-7.159-2a7.554,7.554,0,0,1-1.292-5.683c.2-1.647.612-3.577-.57-4.746-.306-.312-.7-.533-.986-.87a2.918,2.918,0,0,1-.184-2.793,12.13,12.13,0,0,0,.962-2.762c.049-.453,8.292.318,9.052.692,1.035.508.876,1.36,1.188,2.389C478.83,717.946,479.663,719.238,480.189,720.61Z" transform="translate(-187.751 -330.202)" fill="#6c63ff"/><path d="M465.894,580.382c1.617,1.047,2.242,3.1,2.493,5.016.692,5.236-.521,10.528-.612,15.813-.086,7.4,2.058,14.943.227,22.115-1.1,4.287-.165,9.186-1.194,13.516-.306,1.286-.87,2.5-1.164,3.785-.612,2.786.031,5.7.894,8.427a8.706,8.706,0,0,1,.521,2.284,8.218,8.218,0,0,1-.894,3.454l-3.674,8.69c-.41.974-2.027,1.133-3.062,1.262-1.948.233-4.122.4-5.671-.808s-1.923-3.227-2.162-5.114a78.381,78.381,0,0,1-.612-10.919,9,9,0,0,0-.251-2.836,24.848,24.848,0,0,1-1.28-3.062c-.257-1.433.472-2.842.741-4.287a12.915,12.915,0,0,0-.061-3.975c-.239-1.96-.514-3.92-.827-5.867-.441-2.725.19-5.414.612-8.145A22.461,22.461,0,0,0,449.3,612a21.309,21.309,0,0,1-.766,6.124c-.325.974-.79,1.9-1.072,2.9-1.255,4.452,1.421,9.125,1.041,13.737-.178,2.156-1.023,4.287-.784,6.412a21.636,21.636,0,0,0,1.384,4.465,5.787,5.787,0,0,1,0,4.563c-1.99,3.76-.5,8.874,1.28,12.732a17.2,17.2,0,0,1,.943,2.119c.527,1.739.086,3.607.227,5.42a3.417,3.417,0,0,1-2.872-.864c-.269-.282-.49-.612-.753-.906a7.479,7.479,0,0,0-2.56-1.6,3.362,3.362,0,0,0-1.837-.422,3.674,3.674,0,0,0-1.745,1.084,17.094,17.094,0,0,1-1.923,1.464,2.278,2.278,0,0,1-.98.435.864.864,0,0,1-.9-.459,1.089,1.089,0,0,1-.067-.318,48.455,48.455,0,0,1-.361-5.573c0-3.2-3.834-5.408-4.318-8.574-.386-2.554.331-5.157.092-7.729a37.585,37.585,0,0,1-.459-3.944c0-.857.2-1.7.263-2.548a19.062,19.062,0,0,0-.043-2.836l-.19-2.958a25.559,25.559,0,0,0-1.537-8.574,29.133,29.133,0,0,1-2.388-9.848c-.122-2.143-.043-4.287-.288-6.437a31.7,31.7,0,0,1-.57-5.818c.116-1.507.612-2.964.729-4.471.239-2.9-.864-5.714-1.727-8.488s-1.5-5.849-.367-8.525a2.8,2.8,0,0,1,.784-1.139,3.418,3.418,0,0,1,1.445-.539,112.142,112.142,0,0,1,31.981-2.039,10.621,10.621,0,0,1,4.93,1.537Z" transform="translate(-171.943 -277.955)" fill="#3f3d56"/><circle cx="9.811" cy="9.811" r="9.811" transform="translate(249.373 217.76)" fill="#be6f72"/><path d="M428.785,473.275a3.5,3.5,0,0,1,0,1.709,3.87,3.87,0,0,1-.643,1.078A27.684,27.684,0,0,1,425,479.479a5.689,5.689,0,0,0,2.934,2.9,17.033,17.033,0,0,0,4.048,1.158,4.243,4.243,0,0,0,3.968-.686l5.451-3.264a10.891,10.891,0,0,0,2.266-1.635,5.579,5.579,0,0,0,1.58-3.834,1.053,1.053,0,0,0-.2-.723,1.286,1.286,0,0,0-.747-.312,6.642,6.642,0,0,1-4.287-3.742,19.816,19.816,0,0,1-1.488-5.677l-5.812,3.062c-.863.459-1.721.919-2.615,1.317-.57.257-1.721.472-2.125.992C427.2,469.992,428.583,472.118,428.785,473.275Z" transform="translate(-171.5 -233.45)" fill="#be6f72"/><path d="M423.77,482.624a6.461,6.461,0,0,0-1.88,2.542,6.622,6.622,0,0,0,.343,3.73,111.278,111.278,0,0,1,3.675,15.794c.514,3.675.7,7.4.955,11.122.514,7.582,1.262,19.671,2.26,27.2,3.675.165,7.257-.906,10.9-1.3,6.81-.723,13.822.931,20.492-.612-1.617-6.388-3.234-17.295-4.85-23.676a45.178,45.178,0,0,1-1.482-7.686c-.141-1.868-.055-3.742-.031-5.622.055-3.675-.147-7.349-.349-11.024a69.936,69.936,0,0,0-1.482-12.769,2.376,2.376,0,0,0-.71-1.4,2.877,2.877,0,0,0-2.137-.19,9.3,9.3,0,0,1-6.357-1.507c-.808-.551-1.892-1.225-2.646-.612a2.633,2.633,0,0,0-.612,1.3,6.522,6.522,0,0,1-3.834,3.779,19.187,19.187,0,0,1-5.426,1.115,2.664,2.664,0,0,1-1.684-.19c-.87-.533-.931-2.45-2.027-2.578C425.926,479.936,424.419,482.006,423.77,482.624Z" transform="translate(-170.233 -238.377)" fill="#3f3d56"/><path d="M431.382,497.836c-2.26-2.162-3.252-5.3-4.9-7.962a17.724,17.724,0,0,0-4.232-4.654,12.621,12.621,0,0,1-2.3-1.954c-.582-.717-1.023-1.672-1.9-1.947a2.3,2.3,0,0,0-2.064.57,20.3,20.3,0,0,0-1.531,1.629c-2.6,2.689-7.159,3.062-9.217,6.173a5.058,5.058,0,0,0-1.1,2.3,17.8,17.8,0,0,0,3.27,12.8,4.348,4.348,0,0,0,2.266,1.837,7.092,7.092,0,0,0,.441,3.368,90.074,90.074,0,0,0,4.171,11.36,27.483,27.483,0,0,0-.821,4.4c-.429,3.742-.031,7.539-.435,11.287-.331,3.062-1.225,6.045-1.255,9.113,0,.49.043,1.072.465,1.323a1.407,1.407,0,0,0,.729.153l7.533.227a61.147,61.147,0,0,0,13.094-.551,5.451,5.451,0,0,0,1.647-.521c1.458-.815,1.941-2.652,2.174-4.287a37.357,37.357,0,0,0,.361-6.406c.913,2.885,2,5.867,4.752,7.116a10.664,10.664,0,0,0,4.722.57,88.9,88.9,0,0,0,10.283-1.059,1.354,1.354,0,0,0,1.5-1.574l.037-3.344c.073-6.792-1.611-13.283-2.266-20.045a43.579,43.579,0,0,0-.71-6.375c-.214-.876-.527-1.733-.717-2.615a18.7,18.7,0,0,1-.306-2.615l-.478-6.737c-.227-3.117-.551-6.124-.79-9.235a44.709,44.709,0,0,0-1.311-8.978c-.533-1.837-1.641-3.919-3.558-4.146a7.335,7.335,0,0,0-2.989.643,12.077,12.077,0,0,1-7.349-.031,10.353,10.353,0,0,0-2.29-.612,2.248,2.248,0,0,0-2.094.87,3.142,3.142,0,0,0-.325,1.543A81.685,81.685,0,0,1,431.382,497.836Z" transform="translate(-163.355 -238.634)" fill="#6c63ff"/><path d="M421.873,505.6c-2.823-2.976-5.72-6.008-9.358-7.9a7.475,7.475,0,0,0-4.648-1.029,3.48,3.48,0,0,0-2.989,3.27,21.161,21.161,0,0,0,.845,2.86c.22,1.1-.1,2.278.245,3.344a5.66,5.66,0,0,0,1.225,1.88l4.336,5.138a27.911,27.911,0,0,0,6.038,5.8,9.076,9.076,0,0,0,8.023,1.121,9.86,9.86,0,0,0,4.4-4.036c1.078-1.715,1.837-3.589,2.848-5.359a26.609,26.609,0,0,1,6.124-7.429c-1.274-.331-2.872-.8-3.675-1.837a6.07,6.07,0,0,1-.582-1.053l-.992-2.144a2.45,2.45,0,0,0-1.837.692,15.4,15.4,0,0,1-1.366,1.39c-.864.649-2.033.827-2.817,1.568a7.466,7.466,0,0,0-.821,1.029,6.872,6.872,0,0,1-5,2.695Z" transform="translate(-163.7 -246.216)" fill="#3f3d56"/><path d="M456.775,479.372c2.125-3.877,2.027-8.525,2.633-12.9a5.892,5.892,0,0,1,1.17-3.2c1.225-1.384,3.387-1.4,5.236-1.225.545.061,1.225.318,1.194.864a1.1,1.1,0,0,1-.276.521,14.57,14.57,0,0,0-3.025,8.035c.962.668,2.45-.7,3.374,0,.612.514.331,1.531-.037,2.266q-1.28,2.554-2.64,5.071a16.284,16.284,0,0,1-2.8,4.036c-.778.747-1.69,1.335-2.48,2.07-1.837,1.721-2.946,4.152-4.844,5.83a.992.992,0,0,1-.612.312,1.029,1.029,0,0,1-.643-.288,9.285,9.285,0,0,1-2.315-2.8c-.723-1.335-.612-1.727.527-2.67A20.241,20.241,0,0,0,456.775,479.372Z" transform="translate(-181.288 -232.792)" fill="#be6f72"/><path d="M419.561,501.817c.367.227.821.484,1.225.294a1.274,1.274,0,0,0,.41-.4,14.414,14.414,0,0,0,1.739-3.025,1.163,1.163,0,0,0,.129-.49c0-.392-.349-.68-.674-.906a24.962,24.962,0,0,0-5.567-2.646,11.487,11.487,0,0,0-5.022-.992,4.789,4.789,0,0,0-3.35,1.7c-1.225,1.574.827,2.052,2.113,2.621C413.541,499.33,416.763,500.114,419.561,501.817Z" transform="translate(-164.94 -245.064)" fill="#6c63ff"/><path d="M423.674,520.484a.9.9,0,0,0,.257.772c.178-.87-.055-1.788.129-2.664.27-1.317,1.549-2.309,1.66-3.632C423.374,514.5,423.692,519.063,423.674,520.484Z" transform="translate(-170.982 -253.32)" opacity="0.1"/><path d="M572.674,358.04v6.032l-24.9,1.513-.753-6.038Z" transform="translate(-212 -138.768)" opacity="0.2"/><path d="M417.966,452.56c1.556-1.268.655-3.926,1.709-5.628a5.468,5.468,0,0,1,2.664-1.837,12.119,12.119,0,0,1,3.889-1.078,4.513,4.513,0,0,1,3.674,1.353c.4.453.668,1,1.041,1.476a3.981,3.981,0,0,0,3.858,1.335c.814-.184,1.66-.8,1.6-1.635a2.309,2.309,0,0,0-.735-1.311l-1.752-1.941c-1.99-2.2-4.2-4.544-7.122-5.1a12.218,12.218,0,0,0-6.075.815c-.79.263-1.678.655-1.9,1.458-.147.551.073,1.151-.055,1.709-.251,1.108-1.672,1.482-2.333,2.413s-.459,2.033-.649,3.062a26.781,26.781,0,0,0-.808,3.1c-.043.643.282,1.837,1,2.07S417.519,451.794,417.966,452.56Z" transform="translate(-167.614 -223.532)" fill="#3f3d56"/><path d="M435.482,442.482a18.373,18.373,0,0,0-3.258-7.447,13.051,13.051,0,0,0-5.8-4.605,8.3,8.3,0,0,0-7.22.57,10.484,10.484,0,0,0-3.607,4.55c-1.586,3.417-2.174,7.594-.331,10.877.735-.894,2-.49,3.111-.815a32.434,32.434,0,0,0,3.907-1.911C426.3,441.931,431.2,443.364,435.482,442.482Z" transform="translate(-167.284 -220.35)" fill="#fed253"/><path d="M417.411,448.063c-.141-1.1-.233-2.382.551-3.166a.4.4,0,0,1,.325-.147.422.422,0,0,1,.251.22,13.709,13.709,0,0,1,1.151,2.254,2.339,2.339,0,0,0-2.45.949" transform="translate(-168.492 -226.121)" opacity="0.1"/><path d="M440.708,443.153l-.22-2.186a1,1,0,0,1,.043-.539.692.692,0,0,1,.894-.245,1.837,1.837,0,0,1,.716.717,12.856,12.856,0,0,1,1.262,2.493,7.411,7.411,0,0,0-2.982.037" transform="translate(-177.476 -224.322)" opacity="0.1"/><path d="M422.034,502.21v5l-4.22.282H395.62V502.21Z" transform="translate(-153.321 -194.645)" opacity="0.1"/><path d="M377.625,447.294v5.279H351.211l-70.171-87.9V360.52h14.71Z" transform="translate(-108.912 -139.729)" fill="#f1c0c0"/><path d="M377.625,447.294v5.279H351.211l-70.171-87.9V360.52h14.71Z" transform="translate(-108.912 -139.729)" opacity="0.1"/><path d="M377.625,447.294v5.279H351.211l-70.171-87.9V360.52l70.551,86.774Z" transform="translate(-108.912 -139.729)" opacity="0.1"/><path d="M302.52,731.207a1.837,1.837,0,0,1-1.6,2.162c-1.7.576-3.509,1.145-4.716,2.45s-1.445,3.724,0,4.783a4.648,4.648,0,0,0,2.45.668,16.6,16.6,0,0,0,8.182-1.023c1.8-.833,3.5-2.254,5.475-2.125,1.023.061,2.113.539,3.025.073s1.17-1.764,1.176-2.848a21.086,21.086,0,0,0-1.01-6.669c-.092-.294-3.987-.52-4.452-.612l-4.722-.612c-.894-.116-2.823-.79-3.528-.043S302.52,730.319,302.52,731.207Z" transform="translate(-121.193 -335.539)" fill="#6c63ff"/><path d="M353.056,703.114a14.793,14.793,0,0,0,.968,3.209c.655,1.666,1.494,3.436,3.1,4.244a5.531,5.531,0,0,0,4.728-.227,3.894,3.894,0,0,0,1.574-1.194,4.74,4.74,0,0,0,.612-2.75,15.021,15.021,0,0,0-1.225-6.927c-.931-1.837-2.554-3.417-2.578-5.451l-5.579,1.078a1.592,1.592,0,0,0-.821.325,1.414,1.414,0,0,0-.355.667A18.232,18.232,0,0,0,353.056,703.114Z" transform="translate(-143.552 -322.732)" fill="#6c63ff"/><path d="M244.3,607.469a9.116,9.116,0,0,0,.894,5.787,4.479,4.479,0,0,0,5.071,2.15.741.741,0,0,0,.459-.349.864.864,0,0,0-.08-.612,9.039,9.039,0,0,1,.19-6.81c.122-.282.386-.612.674-.5a.613.613,0,0,1,.276.282,3.2,3.2,0,0,1,.429,1.69,6.285,6.285,0,0,0-.049,1.623c.116.527.68,1.023,1.17.8a1.225,1.225,0,0,0,.557-.79c1.366-3.95.747-8.268.123-12.4a.649.649,0,0,0-.729-.68c-2.891-.288-4.471-.98-6.124,1.709C245.743,601.627,244.3,604.744,244.3,607.469Z" transform="translate(-101.426 -285.267)" fill="#6c63ff"/><path d="M298.426,596.347A37.556,37.556,0,0,0,297.164,614l.643,5.3c.22,1.788.435,3.57.747,5.34a14.179,14.179,0,0,1,.325,2.774,14.86,14.86,0,0,1-.435,2.725,31.843,31.843,0,0,0-.643,5.7c-.067,3.062.312,6.124.551,9.186a102.3,102.3,0,0,1-.214,18.324,6.871,6.871,0,0,0,1,4.722,6.075,6.075,0,0,1,.888,1.458c.459,1.4-.612,2.8-.888,4.244a4.287,4.287,0,0,0,3.564,4.9c4.9.582,9.933.318,14.349,2.56.465-1.36-.551-2.9-.086-4.287.294-.857,1.1-1.415,1.654-2.137a6.223,6.223,0,0,0,1.053-3.736,13.651,13.651,0,0,0-.906-5.065c-.521-1.347-1.268-2.676-1.225-4.122a5.207,5.207,0,0,0-.037-2.113,3.3,3.3,0,0,0-.79-.986,12.45,12.45,0,0,1-3.2-7.257,33.425,33.425,0,0,1,.257-8.047c.3-2.535.7-5.212,2.315-7.19a46.134,46.134,0,0,1,1.292-17.913c.159-.539.41-1.164.961-1.292a1.372,1.372,0,0,1,1.176.465A8.028,8.028,0,0,1,321.355,621a7.531,7.531,0,0,1,.576,4.183c-.147.612-.441,1.151-.612,1.739a5.157,5.157,0,0,0,.184,3.595,3.454,3.454,0,0,1,.441,1.353,3.748,3.748,0,0,1-.367,1.176,5.414,5.414,0,0,0,.508,4.379,15.853,15.853,0,0,0,2.86,3.509,12.861,12.861,0,0,0,.4,7.08.894.894,0,0,1,.08.68c-.11.233-.392.318-.612.484-.612.5-.233,1.451.178,2.107a48.3,48.3,0,0,0,3.717,5.157c1.225,1.464,1.115,4.287,2.94,4.814a5.509,5.509,0,0,0,2.327,0c1.8-.276,3.809-.8,4.691-2.388a6.427,6.427,0,0,1,1.072-1.941c.563-.49,1.292-.576,1.6-1.164s-.037-1.36.067-2.039.7-1.225.888-1.941c.453-1.654-1.476-3.013-1.739-4.7-.38-2.45,2.707-4.287,2.578-6.737-.269-5.322-.441-10.668-.717-15.99a115.3,115.3,0,0,1-.147-14.325c.214-2.97.612-6.081-.478-8.843-1.568-3.9-5.892-6.081-10.074-6.5s-8.353.576-12.5,1.225A79.005,79.005,0,0,1,298.426,596.347Z" transform="translate(-121.754 -284.195)" fill="#3f3d56"/><circle cx="9.811" cy="9.811" r="9.811" transform="translate(179.293 233.995)" fill="#fbbebe"/><path d="M310.747,500.963a4.183,4.183,0,0,1-4,2.529c-.355,1.47.5,2.952,1.47,4.109a17.442,17.442,0,0,0,16.695,5.726,8.236,8.236,0,0,0,3.289-1.372,7.294,7.294,0,0,0,2.511-4.348,21.617,21.617,0,0,0,.239-5.114,1.323,1.323,0,0,0-.269-.943,1.347,1.347,0,0,0-.857-.282c-2.07-.184-4.232-.263-6.051-1.28s-3.111-3.313-2.235-5.2c-.141.294-3.717.435-4.189.5-1.476.208-2.952.441-4.422.71a8.041,8.041,0,0,0-2.076.392c-.888.459-.557.233-.349,1.066C310.814,498.728,311.274,499.64,310.747,500.963Z" transform="translate(-125.636 -245.515)" fill="#fbbebe"/><path d="M295.626,510.091a16.248,16.248,0,0,1-3.926-.435,5.512,5.512,0,0,1-3.221-2.15c-.453-.686-.747-1.549-1.47-1.935-1.182-.612-2.529.423-3.472,1.372a12.617,12.617,0,0,1-2.952,2.376c-1.311.692-2.842.937-4.079,1.752a10.254,10.254,0,0,0-2.45,2.646l-8.678,11.82c-3.485,4.752-6.516,9.854-9.621,14.87-2.689,4.342-4.1,9.339-6.124,14.025a1.568,1.568,0,0,0-.19.943c.073.318.459.576.729.392-.913.906-.11,2.45-.325,3.724a4.569,4.569,0,0,1-1.458,2.284,11.513,11.513,0,0,1,4.042.19,12.388,12.388,0,0,1,3.822,1.837c.741-.116.674-1.433,1.225-1.923.331-.288.821-.251,1.255-.337,1.635-.318,2.284-2.284,3.54-3.393,1.047-.925,2.529-1.225,3.638-2.094,1.8-1.415,2.186-3.932,3.129-6.02.8-1.77,2.064-3.313,2.768-5.126a22.086,22.086,0,0,1,1.335-3.534c1.047-1.751,3.019-2.682,4.9-3.521a8.112,8.112,0,0,1,3.73-1c-.067,2.848-.429,5.653.19,8.433.214.98.514,1.935.772,2.909a54.78,54.78,0,0,1,1.5,13.473,41,41,0,0,1,8.574-1.029c2.272-.067,4.538.227,6.81.184,2.695-.049,5.359-.57,8.053-.753a15.044,15.044,0,0,1,7.894,1.225,75,75,0,0,1,.325-11.636l.649-6.087a37.392,37.392,0,0,1,.815-5.255c.355-1.4.87-2.744,1.262-4.134,1.378-4.9,1.127-10.129.864-15.231a19.2,19.2,0,0,0-2.333-7.533,20.385,20.385,0,0,0-1.47-2.5,14.472,14.472,0,0,0-12.653-5.94,2.56,2.56,0,0,0-.906.2,3.019,3.019,0,0,0-1.157,1.378,15,15,0,0,1-5.334,5.536Z" transform="translate(-103.05 -248.678)" fill="#3f3d56"/><path d="M303.859,481.62c.276-.612,1.017-.839,1.47-1.329.87-.931.478-2.419.612-3.675a5.278,5.278,0,0,1,3.491-4.03,11.281,11.281,0,0,1,5.512-.349,5.334,5.334,0,0,1,2.486.827c.318.233.612.533.913.747a2.45,2.45,0,0,0,3.332-.778c-2.168-2.609-4.569-5.365-7.864-6.167a16.128,16.128,0,0,0-3.436-.325,11.157,11.157,0,0,0-4.507.527,7.513,7.513,0,0,0-3.956,4.569,22.211,22.211,0,0,0-.962,6.124,23.065,23.065,0,0,0,0,4.165A11.514,11.514,0,0,0,303,487.174a1.587,1.587,0,0,0,.612.57C306.4,488.969,303.633,482.128,303.859,481.62Z" transform="translate(-123.384 -234.562)" fill="#3f3d56"/><path d="M320.065,467.539c-.337-2.884-2.395-5.267-4.581-7.184a16.891,16.891,0,0,0-6.155-3.705,8.224,8.224,0,0,0-6.945.845A10.67,10.67,0,0,0,299,462.144a14.631,14.631,0,0,0-1.476,6.737,7.263,7.263,0,0,0,3.289,5.83A6.185,6.185,0,0,1,304,472.659a155.923,155.923,0,0,1,16.064-5.12Z" transform="translate(-122.093 -230.58)" fill="#fed253"/><path d="M303.578,472.72c.2,0,.325.2.423.367a15.522,15.522,0,0,1,1.28,2.45c-.717.153-1.948.325-2.3-.306C302.788,474.912,303.015,472.689,303.578,472.72Z" transform="translate(-124.181 -236.961)" opacity="0.1"/><path d="M326.588,468.546c-.147.141-.318-.147-.318-.355v-2.376a.349.349,0,0,1,.043-.19.288.288,0,0,1,.2-.1c.5-.055.906.367,1.225.772a12.931,12.931,0,0,1,1.255,2.088l-2.591-.08" transform="translate(-133.234 -234.172)" opacity="0.1"/><path d="M367.164,524.747a16.02,16.02,0,0,1,1.8-1.476c1.7-1.133,3.748-1.58,5.653-2.3s3.84-1.892,4.581-3.791a9,9,0,0,0,.355-3.675,3.673,3.673,0,0,0-.269-1.513,3.006,3.006,0,0,0-.968-1.053c-2.584-1.911-6.051-2.064-9.26-1.868a58.038,58.038,0,0,0-20.461,5.108,1.776,1.776,0,0,0-.857.612,1.751,1.751,0,0,0-.165.851,14.086,14.086,0,0,0,.692,5.334c.845,2.18,2.584,3.938,3.313,6.161.331,1,.441,2.058.729,3.062a4.287,4.287,0,0,0,1.721,2.56c2.419,1.445,4.7-.5,6.381-2Z" transform="translate(-141.48 -251.025)" fill="#3f3d56"/><path d="M313.961,530.058l-3.1-6.773a23.71,23.71,0,0,1-1.176-2.9c-.355-1.182-.527-2.407-.857-3.595-1.09-3.956-3.84-7.251-5.181-11.128a2.113,2.113,0,0,0-.5-.937,1.635,1.635,0,0,0-1.366-.245c-1.874.325-3.338,1.751-5.052,2.56-.8.367-1.654.612-2.45,1.035a3.062,3.062,0,0,0-1.641,1.954,4.775,4.775,0,0,0,.668,2.75c1.666,3.76,2.046,7.962,2.119,12.077.055,2.768-.086,5.738-1.721,7.961-3.142,4.287-1.133,10.583.043,15.77.141.612.306,1.274.4,1.923a17.68,17.68,0,0,1,.141,2.45,19.173,19.173,0,0,1-1.3,8.078,9.039,9.039,0,0,0,3.675,1.041q5.334.68,10.711.955a11.672,11.672,0,0,0,3.362-.171,6.124,6.124,0,0,0,4.526-6c.2,1.7.557,3.54,1.788,4.716s3.025,1.354,4.7,1.445a87.326,87.326,0,0,0,14.147-.4,2.449,2.449,0,0,0,.87-.2c.906-.453.955-1.7.882-2.707-.135-1.88-.276-3.76-.5-5.628a23.036,23.036,0,0,1-.294-3.6,20.715,20.715,0,0,1,.612-3.675,41.671,41.671,0,0,0,1.194-11.636,19.632,19.632,0,0,1-.116-2.872c.159-2.162,1.3-4.22,1.084-6.369-.612-6.32-1.108-12.806-2.872-18.905a4.9,4.9,0,0,0-1.672-2.885c-1.225-.821-2.946-.392-4.348-.912a10.874,10.874,0,0,1-1.868-1.109,8.574,8.574,0,0,0-4.22-1.3,3.582,3.582,0,0,0-3.062,1.115,4.447,4.447,0,0,0-.612,1.672c-.888,3.736-1.929,7.429-2.97,11.122l-1,3.54-2.676,9.5C314.053,528.79,314.231,529.1,313.961,530.058Z" transform="translate(-119.958 -247.853)" fill="#6c63ff"/><path d="M334.931,400.25l59.24,62.253v5.279H367.757l-44.517-58.1" transform="translate(-125.268 -155.127)" fill="#f1c0c0"/><path d="M334.931,400.25l59.24,62.253v5.279H367.757l-44.517-58.1" transform="translate(-125.268 -155.127)" opacity="0.1"/><path d="M324.183,414.31l.19.067,43.764,53.575h26.034v5.279H367.757l-44.517-58.1Z" transform="translate(-125.268 -160.577)" opacity="0.1"/><path d="M343.652,502.59c-2.143.937-4.526,2.137-5.169,4.391a2.2,2.2,0,0,0,2.168,2.946,7.349,7.349,0,0,0,2.946-.539l12.647-4.177c.343-.11.735-.276.821-.612a1.053,1.053,0,0,0-.122-.612c-.392-.955-.778-2.909-1.6-3.577-.674-.539-2.009-.349-2.823-.337C349.385,500.1,346.439,501.365,343.652,502.59Z" transform="translate(-137.921 -247.546)" fill="#6c63ff"/><path d="M363.7,504.9a20.339,20.339,0,0,1,6.277.974,11.183,11.183,0,0,1,5.2,3.552,3.9,3.9,0,0,1,.821,1.6c.122.612,2.119.98,1.678,1.4,1.341-.214,1.023.416,2.382.4a4.5,4.5,0,0,0,3.644-1.445,4.734,4.734,0,0,0,.717-2.995,5.1,5.1,0,0,0-.4-2.119c-.612-1.286-2.021-1.978-3.319-2.572l-10.938-5a7.264,7.264,0,0,0-2.021-.717,7.559,7.559,0,0,0-1.782.043l-4.954.57a7.429,7.429,0,0,1,3.387,6.535" transform="translate(-146.695 -246.738)" fill="#3f3d56"/></g></g></svg>