<svg xmlns="http://www.w3.org/2000/svg" width="1920" height="402.014" viewBox="0 0 1920 402.014">
  <path id="Path_1518" data-name="Path 1518" d="M-18656-2668.5v-202.233c98.855-47.646,262.838-102.152,462.252-85.837,326.648,26.725,1042.311,163.322,1273.93,38.6,74.334-40.025,133.369-95.337,182.813-150.733v400.2Z" transform="translate(18656.5 3070.014)" stroke="#707070" stroke-width="1" opacity="0.08"/>
  <path id="Path_1517" data-name="Path 1517" d="M-18669-2668.5v-153.823c97.107-48.985,266.83-109.3,475.256-92.245,326.648,26.725,1042.311,163.322,1273.93,38.6,67.93-36.577,123.08-85.917,169.814-136.425V-2668.5Z" transform="translate(18669.5 3070.014)" stroke="#707070" stroke-width="1" opacity="0.08"/>
  <path id="Path_1519" data-name="Path 1519" d="M-18697-2668.5v-85.952c90.092-50.417,273.078-125.95,503.256-107.118,326.648,26.725,1042.311,163.322,1273.93,38.6,54.824-29.52,101.342-67.371,141.813-107.425V-2668.5Z" transform="translate(18697.5 3070.014)" stroke="#707070" stroke-width="1" opacity="0.08"/>
</svg>
