<svg xmlns="http://www.w3.org/2000/svg" width="1920.004" height="402.011" viewBox="0 0 1920.004 402.011"><g transform="translate(0.002 -672.989)"><path d="M-18669.041-2668.5v-153.823c97.107-48.985,266.83-109.3,475.256-92.245,326.648,26.725,1042.309,163.322,1273.934,38.6,67.93-36.577,123.08-85.917,169.814-136.425V-2668.5Z" transform="translate(18669.539 3743)" fill="#3478f6" stroke="#707070" stroke-width="1" opacity="0.08"/><path d="M-18656.037-2668.5v-202.233c98.855-47.646,262.838-102.152,462.252-85.837,326.648,26.725,1042.309,163.322,1273.934,38.6,74.334-40.025,133.369-95.337,182.813-150.733v400.2Z" transform="translate(18656.539 3743)" fill="#3478f6" stroke="#707070" stroke-width="1" opacity="0.08"/><path d="M-18697.041-2668.5v-85.952c90.092-50.417,273.078-125.95,503.256-107.118,326.648,26.725,1042.309,163.322,1273.934,38.6,54.824-29.52,101.342-67.371,141.813-107.425V-2668.5Z" transform="translate(18697.539 3743)" fill="#3478f6" stroke="#707070" stroke-width="1" opacity="0.08"/></g></svg>